solid STL file created by Vectorworks 2022 SP1 (Build 619242) (64-Bit)
 facet normal -0.78585689317540 0.00000000000000 0.61840839535755
  outer loop
   vertex 70.63484320836699 -75.99999994117573 6.10092788860976
   vertex 70.63484320836699 -276.00000005882231 6.10092788860976
   vertex 72.84345404091970 -274.40000002941122 8.90757162134867
  endloop
 endfacet
 facet normal -0.78585689317540 0.00000000000000 0.61840839535755
  outer loop
   vertex 70.63484320836699 -276.00000005882231 6.10092788860976
   vertex 72.84345404091970 -276.00000005882231 8.90757162134867
   vertex 72.84345404091970 -274.40000002941122 8.90757162134867
  endloop
 endfacet
 facet normal -0.78585689317540 0.00000000000000 0.61840839535755
  outer loop
   vertex 72.84345404091970 -274.40000002941122 8.90757162134867
   vertex 72.84345404091970 -75.99999994117573 8.90757162134867
   vertex 70.63484320836699 -75.99999994117573 6.10092788860976
  endloop
 endfacet
 facet normal 0.00000000000000 1.00000000000000 0.00000000000000
  outer loop
   vertex 70.63484320836699 -276.00000005882231 6.10092788860975
   vertex 68.94525088803998 -276.00000005882231 7.43050593862841
   vertex 70.10758696553860 -276.00000005882231 8.90757162134868
  endloop
 endfacet
 facet normal 0.00000000000000 1.00000000000000 0.00000000000000
  outer loop
   vertex 70.10758696553860 -276.00000005882231 8.90757162134868
   vertex 72.84345404091970 -276.00000005882231 8.90757162134868
   vertex 70.63484320836699 -276.00000005882231 6.10092788860975
  endloop
 endfacet
 facet normal 0.00000000000000 -1.00000000000000 0.00000000000000
  outer loop
   vertex 70.63484320836699 -75.99999994117573 6.10092788860975
   vertex 72.84345404091970 -75.99999994117573 8.90757162134868
   vertex 70.10758696553860 -75.99999994117573 8.90757162134868
  endloop
 endfacet
 facet normal 0.00000000000000 -1.00000000000000 -0.00000000000000
  outer loop
   vertex 70.10758696553860 -75.99999994117573 8.90757162134868
   vertex 68.94525088803998 -75.99999994117573 7.43050593862841
   vertex 70.63484320836699 -75.99999994117573 6.10092788860975
  endloop
 endfacet
 facet normal 0.78585689317541 0.00000000000000 -0.61840839535755
  outer loop
   vertex 68.94525088803999 -75.99999994117573 7.43050593862840
   vertex 70.10758696553860 -75.99999994117580 8.90757162134867
   vertex 70.10758696553860 -274.40000002941122 8.90757162134867
  endloop
 endfacet
 facet normal 0.78585689317541 -0.00000000000000 -0.61840839535755
  outer loop
   vertex 70.10758696553860 -274.40000002941122 8.90757162134867
   vertex 68.94525088803999 -276.00000005882231 7.43050593862840
   vertex 68.94525088803999 -75.99999994117573 7.43050593862840
  endloop
 endfacet
 facet normal 0.78585689317541 0.00000000000000 -0.61840839535755
  outer loop
   vertex 70.10758696553860 -274.40000002941122 8.90757162134867
   vertex 70.10758696553860 -276.00000005882231 8.90757162134867
   vertex 68.94525088803999 -276.00000005882231 7.43050593862840
  endloop
 endfacet
 facet normal 0.61840839535755 0.00000000000000 0.78585689317541
  outer loop
   vertex 68.94525088803998 -276.00000005882231 7.43050593862841
   vertex 70.63484320836699 -276.00000005882231 6.10092788860976
   vertex 70.63484320836699 -75.99999994117573 6.10092788860976
  endloop
 endfacet
 facet normal 0.61840839535755 0.00000000000000 0.78585689317541
  outer loop
   vertex 70.63484320836699 -75.99999994117573 6.10092788860976
   vertex 68.94525088803998 -75.99999994117573 7.43050593862841
   vertex 68.94525088803998 -276.00000005882231 7.43050593862841
  endloop
 endfacet
 facet normal 0.00000000000000 0.00000000000000 1.00000000000000
  outer loop
   vertex 280.50000000000000 -283.50000000000000 8.90757162134867
   vertex 273.15654595908029 -276.00000005882231 8.90757162134867
   vertex 273.00000005882231 -276.15654595908029 8.90757162134867
  endloop
 endfacet
 facet normal 0.00000000000000 0.00000000000000 1.00000000000000
  outer loop
   vertex 280.50000000000000 -283.50000000000000 8.90757162134867
   vertex 275.70153858734170 -276.00000005882231 8.90757162134867
   vertex 273.15654595908029 -276.00000005882231 8.90757162134867
  endloop
 endfacet
 facet normal 0.00000000000000 0.00000000000000 1.00000000000000
  outer loop
   vertex 280.50000000000000 -274.40000002941122 8.90757162134867
   vertex 275.70153858734170 -274.40000002941122 8.90757162134867
   vertex 275.70153858734170 -276.00000005882231 8.90757162134867
  endloop
 endfacet
 facet normal 0.00000000000000 0.00000000000000 1.00000000000000
  outer loop
   vertex 74.59999997058789 -274.40000002941122 8.90757162134867
   vertex 74.59999997058789 -276.15654595908029 8.90757162134867
   vertex 273.00000005882231 -276.15654595908029 8.90757162134867
  endloop
 endfacet
 facet normal 0.00000000000000 0.00000000000000 1.00000000000000
  outer loop
   vertex 74.59999997058789 -283.50000000000000 8.90757162134867
   vertex 280.50000000000000 -283.50000000000000 8.90757162134867
   vertex 273.00000005882231 -278.89241303446141 8.90757162134867
  endloop
 endfacet
 facet normal -0.00000000000000 0.00000000000000 1.00000000000000
  outer loop
   vertex 275.70153858734170 -276.00000005882231 8.90757162134867
   vertex 280.50000000000000 -283.50000000000000 8.90757162134867
   vertex 280.50000000000000 -274.40000002941122 8.90757162134867
  endloop
 endfacet
 facet normal 0.00000000000000 -0.00000000000000 1.00000000000000
  outer loop
   vertex 273.00000005882231 -276.15654595908029 8.90757162134867
   vertex 273.15654595908029 -276.00000005882231 8.90757162134867
   vertex 74.59999997058789 -274.40000002941122 8.90757162134867
  endloop
 endfacet
 facet normal 0.00000000000000 0.00000000000000 1.00000000000000
  outer loop
   vertex 273.00000005882231 -276.15654595908029 8.90757162134867
   vertex 273.00000005882231 -278.89241303446141 8.90757162134867
   vertex 280.50000000000000 -283.50000000000000 8.90757162134867
  endloop
 endfacet
 facet normal 0.00000000000000 0.00000000000000 1.00000000000000
  outer loop
   vertex 273.00000005882231 -278.89241303446141 8.90757162134867
   vertex 74.59999997058789 -278.89241303446141 8.90757162134867
   vertex 74.59999997058789 -283.50000000000000 8.90757162134867
  endloop
 endfacet
 facet normal 0.00000000000000 0.00000000000000 1.00000000000000
  outer loop
   vertex 65.50000000000000 -283.50000000000000 8.90757162134867
   vertex 72.99999994117573 -276.15654595908029 8.90757162134867
   vertex 72.84345404091970 -276.00000005882231 8.90757162134867
  endloop
 endfacet
 facet normal 0.00000000000000 0.00000000000000 1.00000000000000
  outer loop
   vertex 65.50000000000000 -283.50000000000000 8.90757162134867
   vertex 72.99999994117576 -278.89241303446141 8.90757162134867
   vertex 72.99999994117573 -276.15654595908029 8.90757162134867
  endloop
 endfacet
 facet normal 0.00000000000000 -0.00000000000000 1.00000000000000
  outer loop
   vertex 74.59999997058789 -283.50000000000000 8.90757162134867
   vertex 74.59999997058789 -278.89241303446141 8.90757162134867
   vertex 72.99999994117576 -278.89241303446141 8.90757162134867
  endloop
 endfacet
 facet normal 0.00000000000000 0.00000000000000 1.00000000000000
  outer loop
   vertex 74.59999997058789 -274.40000002941122 8.90757162134867
   vertex 72.84345404091970 -276.00000005882231 8.90757162134867
   vertex 72.99999994117573 -276.15654595908029 8.90757162134867
  endloop
 endfacet
 facet normal 0.00000000000000 0.00000000000000 1.00000000000000
  outer loop
   vertex 65.50000000000000 -274.40000002941122 8.90757162134867
   vertex 65.50000000000000 -283.50000000000000 8.90757162134867
   vertex 70.10758696553860 -276.00000005882231 8.90757162134867
  endloop
 endfacet
 facet normal 0.00000000000000 0.00000000000000 1.00000000000000
  outer loop
   vertex 72.99999994117576 -278.89241303446141 8.90757162134867
   vertex 65.50000000000000 -283.50000000000000 8.90757162134867
   vertex 74.59999997058789 -283.50000000000000 8.90757162134867
  endloop
 endfacet
 facet normal 0.00000000000000 0.00000000000000 1.00000000000000
  outer loop
   vertex 74.59999997058789 -274.40000002941122 8.90757162134867
   vertex 72.84345404091970 -274.40000002941122 8.90757162134867
   vertex 72.84345404091970 -276.00000005882231 8.90757162134867
  endloop
 endfacet
 facet normal 0.00000000000000 0.00000000000000 1.00000000000000
  outer loop
   vertex 72.84345404091970 -276.00000005882231 8.90757162134867
   vertex 70.10758696553860 -276.00000005882231 8.90757162134867
   vertex 65.50000000000000 -283.50000000000000 8.90757162134867
  endloop
 endfacet
 facet normal 0.00000000000000 -0.00000000000000 1.00000000000000
  outer loop
   vertex 70.10758696553860 -276.00000005882231 8.90757162134867
   vertex 70.10758696553860 -274.40000002941122 8.90757162134867
   vertex 65.50000000000000 -274.40000002941122 8.90757162134867
  endloop
 endfacet
 facet normal 0.00000000000000 0.00000000000000 1.00000000000000
  outer loop
   vertex 74.59999997058789 -75.84345404091971 8.90757162134867
   vertex 76.20000000000003 -79.20000000000000 8.90757162134867
   vertex 269.80000000000007 -79.20000000000000 8.90757162134867
  endloop
 endfacet
 facet normal 0.00000000000000 0.00000000000000 1.00000000000000
  outer loop
   vertex 280.50000000000000 -68.50000000000003 8.90757162134867
   vertex 273.00000005882231 -73.10758696553860 8.90757162134867
   vertex 273.00000005882231 -75.84345404091971 8.90757162134867
  endloop
 endfacet
 facet normal 0.00000000000000 -0.00000000000000 1.00000000000000
  outer loop
   vertex 273.15654595908029 -274.40000002941122 8.90757162134867
   vertex 273.15654595908029 -75.99999994117573 8.90757162134867
   vertex 269.80000000000007 -79.20000000000000 8.90757162134867
  endloop
 endfacet
 facet normal 0.00000000000000 -0.00000000000000 1.00000000000000
  outer loop
   vertex 269.80000000000007 -79.20000000000000 8.90757162134867
   vertex 273.00000005882231 -75.84345404091971 8.90757162134867
   vertex 74.59999997058789 -75.84345404091971 8.90757162134867
  endloop
 endfacet
 facet normal -0.00000000000000 0.00000000000000 1.00000000000000
  outer loop
   vertex 273.00000005882231 -75.84345404091971 8.90757162134867
   vertex 273.15654595908029 -75.99999994117573 8.90757162134867
   vertex 280.50000000000000 -68.50000000000003 8.90757162134867
  endloop
 endfacet
 facet normal 0.00000000000000 0.00000000000000 1.00000000000000
  outer loop
   vertex 74.59999997058789 -68.50000000000003 8.90757162134867
   vertex 74.59999997058789 -73.10758696553860 8.90757162134867
   vertex 273.00000005882231 -73.10758696553860 8.90757162134867
  endloop
 endfacet
 facet normal 0.00000000000000 0.00000000000000 1.00000000000000
  outer loop
   vertex 269.80000000000007 -79.20000000000000 8.90757162134867
   vertex 273.15654595908029 -75.99999994117573 8.90757162134867
   vertex 273.00000005882231 -75.84345404091971 8.90757162134867
  endloop
 endfacet
 facet normal 0.00000000000000 0.00000000000000 1.00000000000000
  outer loop
   vertex 74.59999997058789 -274.40000002941122 8.90757162134867
   vertex 76.20000000000006 -272.80000000000007 8.90757162134867
   vertex 76.20000000000003 -79.20000000000000 8.90757162134867
  endloop
 endfacet
 facet normal 0.00000000000000 -0.00000000000000 1.00000000000000
  outer loop
   vertex 280.50000000000000 -274.40000002941122 8.90757162134867
   vertex 280.50000000000000 -68.50000000000003 8.90757162134867
   vertex 275.70153858734170 -75.99999994117573 8.90757162134867
  endloop
 endfacet
 facet normal 0.00000000000000 -0.00000000000000 1.00000000000000
  outer loop
   vertex 273.00000005882231 -73.10758696553860 8.90757162134867
   vertex 280.50000000000000 -68.50000000000003 8.90757162134867
   vertex 74.59999997058789 -68.50000000000003 8.90757162134867
  endloop
 endfacet
 facet normal 0.00000000000000 0.00000000000000 1.00000000000000
  outer loop
   vertex 76.20000000000003 -79.20000000000000 8.90757162134867
   vertex 74.59999997058789 -75.84345404091971 8.90757162134867
   vertex 74.59999997058789 -274.40000002941122 8.90757162134867
  endloop
 endfacet
 facet normal 0.00000000000000 0.00000000000000 1.00000000000000
  outer loop
   vertex 74.59999997058789 -274.40000002941122 8.90757162134867
   vertex 273.15654595908029 -274.40000002941122 8.90757162134867
   vertex 269.80000000000007 -272.80000000000007 8.90757162134867
  endloop
 endfacet
 facet normal 0.00000000000000 0.00000000000000 1.00000000000000
  outer loop
   vertex 273.15654595908029 -75.99999994117573 8.90757162134867
   vertex 275.70153858734170 -75.99999994117573 8.90757162134867
   vertex 280.50000000000000 -68.50000000000003 8.90757162134867
  endloop
 endfacet
 facet normal 0.00000000000000 0.00000000000000 1.00000000000000
  outer loop
   vertex 269.80000000000007 -272.80000000000007 8.90757162134867
   vertex 76.20000000000006 -272.80000000000007 8.90757162134867
   vertex 74.59999997058789 -274.40000002941122 8.90757162134867
  endloop
 endfacet
 facet normal 0.00000000000000 0.00000000000000 1.00000000000000
  outer loop
   vertex 269.80000000000007 -79.20000000000000 8.90757162134867
   vertex 269.80000000000007 -272.80000000000007 8.90757162134867
   vertex 273.15654595908029 -274.40000002941122 8.90757162134867
  endloop
 endfacet
 facet normal 0.00000000000000 0.00000000000000 1.00000000000000
  outer loop
   vertex 65.50000000000000 -68.50000000000003 8.90757162134867
   vertex 72.84345404091970 -75.99999994117573 8.90757162134867
   vertex 72.99999994117573 -75.84345404091971 8.90757162134867
  endloop
 endfacet
 facet normal 0.00000000000000 0.00000000000000 1.00000000000000
  outer loop
   vertex 65.50000000000000 -68.50000000000003 8.90757162134867
   vertex 70.10758696553860 -75.99999994117580 8.90757162134867
   vertex 72.84345404091970 -75.99999994117573 8.90757162134867
  endloop
 endfacet
 facet normal 0.00000000000000 0.00000000000000 1.00000000000000
  outer loop
   vertex 65.50000000000000 -274.40000002941122 8.90757162134867
   vertex 70.10758696553860 -274.40000002941122 8.90757162134867
   vertex 70.10758696553860 -75.99999994117580 8.90757162134867
  endloop
 endfacet
 facet normal 0.00000000000000 0.00000000000000 1.00000000000000
  outer loop
   vertex 74.59999997058789 -274.40000002941122 8.90757162134867
   vertex 72.99999994117573 -75.84345404091971 8.90757162134867
   vertex 72.84345404091970 -75.99999994117573 8.90757162134867
  endloop
 endfacet
 facet normal 0.00000000000000 0.00000000000000 1.00000000000000
  outer loop
   vertex 74.59999997058789 -68.50000000000003 8.90757162134867
   vertex 65.50000000000000 -68.50000000000003 8.90757162134867
   vertex 72.99999994117573 -73.10758696553860 8.90757162134867
  endloop
 endfacet
 facet normal 0.00000000000000 0.00000000000000 1.00000000000000
  outer loop
   vertex 70.10758696553860 -75.99999994117580 8.90757162134867
   vertex 65.50000000000000 -68.50000000000003 8.90757162134867
   vertex 65.50000000000000 -274.40000002941122 8.90757162134867
  endloop
 endfacet
 facet normal 0.00000000000000 -0.00000000000000 1.00000000000000
  outer loop
   vertex 74.59999997058789 -274.40000002941122 8.90757162134867
   vertex 74.59999997058789 -75.84345404091971 8.90757162134867
   vertex 72.99999994117573 -75.84345404091971 8.90757162134867
  endloop
 endfacet
 facet normal 0.00000000000000 -0.00000000000000 1.00000000000000
  outer loop
   vertex 72.99999994117573 -75.84345404091971 8.90757162134867
   vertex 72.99999994117573 -73.10758696553860 8.90757162134867
   vertex 65.50000000000000 -68.50000000000003 8.90757162134867
  endloop
 endfacet
 facet normal 0.00000000000000 0.00000000000000 1.00000000000000
  outer loop
   vertex 72.99999994117573 -73.10758696553860 8.90757162134867
   vertex 74.59999997058789 -73.10758696553860 8.90757162134867
   vertex 74.59999997058789 -68.50000000000003 8.90757162134867
  endloop
 endfacet
 facet normal 0.00000000000000 0.00000000000000 1.00000000000000
  outer loop
   vertex 72.84345404091970 -75.99999994117573 8.90757162134867
   vertex 72.84345404091970 -274.40000002941122 8.90757162134867
   vertex 74.59999997058789 -274.40000002941122 8.90757162134867
  endloop
 endfacet
 facet normal 0.00000000000000 0.00000000000000 1.00000000000000
  outer loop
   vertex 275.70153858734170 -75.99999994117573 8.90757162134867
   vertex 275.70153858734170 -274.40000002941122 8.90757162134867
   vertex 280.50000000000000 -274.40000002941122 8.90757162134867
  endloop
 endfacet
 facet normal 0.00000000000000 0.00000000000000 1.00000000000000
  outer loop
   vertex 72.99999994117573 -276.15654595908029 8.90757162134867
   vertex 74.59999997058789 -276.15654595908029 8.90757162134867
   vertex 74.59999997058789 -274.40000002941122 8.90757162134867
  endloop
 endfacet
 facet normal 0.00000000000000 -0.00000000000000 1.00000000000000
  outer loop
   vertex 273.15654595908029 -276.00000005882231 8.90757162134867
   vertex 273.15654595908029 -274.40000002941122 8.90757162134867
   vertex 74.59999997058789 -274.40000002941122 8.90757162134867
  endloop
 endfacet
 facet normal 0.00000000000000 -0.78585689317540 0.61840839535756
  outer loop
   vertex 273.00000005882231 -278.36515679163301 6.10092788860977
   vertex 273.00000005882231 -276.15654595908029 8.90757162134866
   vertex 74.59999997058789 -276.15654595908029 8.90757162134866
  endloop
 endfacet
 facet normal 0.00000000000000 -0.78585689317540 0.61840839535756
  outer loop
   vertex 74.59999997058789 -276.15654595908029 8.90757162134866
   vertex 72.99999994117574 -278.36515679163301 6.10092788860977
   vertex 273.00000005882231 -278.36515679163301 6.10092788860977
  endloop
 endfacet
 facet normal 0.00000000000000 -0.78585689317540 0.61840839535756
  outer loop
   vertex 74.59999997058789 -276.15654595908029 8.90757162134866
   vertex 72.99999994117574 -276.15654595908029 8.90757162134866
   vertex 72.99999994117574 -278.36515679163301 6.10092788860977
  endloop
 endfacet
 facet normal -1.00000000000000 0.00000000000000 0.00000000000000
  outer loop
   vertex 273.00000005882231 -278.36515679163296 6.10092788860976
   vertex 273.00000005882231 -280.05474911195995 7.43050593862840
   vertex 273.00000005882231 -278.89241303446141 8.90757162134868
  endloop
 endfacet
 facet normal -1.00000000000000 0.00000000000000 0.00000000000000
  outer loop
   vertex 273.00000005882231 -278.89241303446141 8.90757162134868
   vertex 273.00000005882231 -276.15654595908029 8.90757162134867
   vertex 273.00000005882231 -278.36515679163296 6.10092788860976
  endloop
 endfacet
 facet normal 1.00000000000000 0.00000000000000 -0.00000000000000
  outer loop
   vertex 72.99999994117573 -278.36515679163296 6.10092788860976
   vertex 72.99999994117573 -276.15654595908029 8.90757162134867
   vertex 72.99999994117573 -278.89241303446141 8.90757162134868
  endloop
 endfacet
 facet normal 1.00000000000000 0.00000000000000 0.00000000000000
  outer loop
   vertex 72.99999994117573 -278.89241303446141 8.90757162134868
   vertex 72.99999994117573 -280.05474911195995 7.43050593862840
   vertex 72.99999994117573 -278.36515679163296 6.10092788860976
  endloop
 endfacet
 facet normal 0.00000000000000 0.61840839535756 0.78585689317540
  outer loop
   vertex 273.00000005882231 -278.36515679163301 6.10092788860976
   vertex 72.99999994117573 -278.36515679163301 6.10092788860976
   vertex 72.99999994117576 -280.05474911195995 7.43050593862839
  endloop
 endfacet
 facet normal -0.00000000000000 0.61840839535756 0.78585689317540
  outer loop
   vertex 72.99999994117576 -280.05474911195995 7.43050593862839
   vertex 273.00000005882231 -280.05474911195995 7.43050593862839
   vertex 273.00000005882231 -278.36515679163301 6.10092788860976
  endloop
 endfacet
 facet normal -0.00000000000000 0.78585689317542 -0.61840839535753
  outer loop
   vertex 273.00000005882231 -280.05474911195995 7.43050593862840
   vertex 72.99999994117576 -280.05474911195995 7.43050593862840
   vertex 74.59999997058789 -278.89241303446141 8.90757162134867
  endloop
 endfacet
 facet normal 0.00000000000000 0.78585689317542 -0.61840839535753
  outer loop
   vertex 72.99999994117576 -280.05474911195995 7.43050593862840
   vertex 72.99999994117576 -278.89241303446141 8.90757162134867
   vertex 74.59999997058789 -278.89241303446141 8.90757162134867
  endloop
 endfacet
 facet normal 0.00000000000000 0.78585689317542 -0.61840839535753
  outer loop
   vertex 74.59999997058789 -278.89241303446141 8.90757162134867
   vertex 273.00000005882231 -278.89241303446141 8.90757162134867
   vertex 273.00000005882231 -280.05474911195995 7.43050593862840
  endloop
 endfacet
 facet normal -0.00000000000000 0.78585689317540 0.61840839535756
  outer loop
   vertex 273.00000005882231 -73.63484320836699 6.10092788860977
   vertex 72.99999994117574 -73.63484320836699 6.10092788860977
   vertex 74.59999997058789 -75.84345404091970 8.90757162134868
  endloop
 endfacet
 facet normal -0.00000000000001 0.78585689317540 0.61840839535756
  outer loop
   vertex 72.99999994117574 -73.63484320836699 6.10092788860977
   vertex 72.99999994117574 -75.84345404091971 8.90757162134868
   vertex 74.59999997058789 -75.84345404091970 8.90757162134868
  endloop
 endfacet
 facet normal 0.00000000000000 0.78585689317540 0.61840839535756
  outer loop
   vertex 74.59999997058789 -75.84345404091970 8.90757162134868
   vertex 273.00000005882231 -75.84345404091971 8.90757162134868
   vertex 273.00000005882231 -73.63484320836699 6.10092788860977
  endloop
 endfacet
 facet normal -1.00000000000000 0.00000000000000 0.00000000000000
  outer loop
   vertex 273.00000005882231 -73.63484320836700 6.10092788860978
   vertex 273.00000005882231 -75.84345404091971 8.90757162134868
   vertex 273.00000005882231 -73.10758696553860 8.90757162134867
  endloop
 endfacet
 facet normal -1.00000000000000 0.00000000000000 -0.00000000000000
  outer loop
   vertex 273.00000005882231 -73.10758696553860 8.90757162134867
   vertex 273.00000005882231 -71.94525088803999 7.43050593862843
   vertex 273.00000005882231 -73.63484320836700 6.10092788860978
  endloop
 endfacet
 facet normal 1.00000000000000 0.00000000000000 0.00000000000000
  outer loop
   vertex 72.99999994117573 -73.63484320836700 6.10092788860978
   vertex 72.99999994117573 -71.94525088804001 7.43050593862843
   vertex 72.99999994117573 -73.10758696553860 8.90757162134867
  endloop
 endfacet
 facet normal 1.00000000000000 0.00000000000000 0.00000000000000
  outer loop
   vertex 72.99999994117573 -73.10758696553860 8.90757162134867
   vertex 72.99999994117573 -75.84345404091971 8.90757162134868
   vertex 72.99999994117573 -73.63484320836700 6.10092788860978
  endloop
 endfacet
 facet normal 0.00000000000000 -0.61840839535755 0.78585689317540
  outer loop
   vertex 273.00000005882231 -73.63484320836700 6.10092788860977
   vertex 273.00000005882231 -71.94525088803999 7.43050593862843
   vertex 72.99999994117574 -71.94525088804001 7.43050593862842
  endloop
 endfacet
 facet normal -0.00000000000000 -0.61840839535755 0.78585689317540
  outer loop
   vertex 72.99999994117574 -71.94525088804001 7.43050593862842
   vertex 72.99999994117573 -73.63484320836700 6.10092788860977
   vertex 273.00000005882231 -73.63484320836700 6.10092788860977
  endloop
 endfacet
 facet normal 0.00000000000000 -0.78585689317540 -0.61840839535755
  outer loop
   vertex 273.00000005882231 -71.94525088803999 7.43050593862842
   vertex 273.00000005882231 -73.10758696553860 8.90757162134867
   vertex 74.59999997058789 -73.10758696553862 8.90757162134867
  endloop
 endfacet
 facet normal 0.00000000000000 -0.78585689317540 -0.61840839535756
  outer loop
   vertex 74.59999997058789 -73.10758696553862 8.90757162134867
   vertex 72.99999994117574 -71.94525088804001 7.43050593862842
   vertex 273.00000005882231 -71.94525088803999 7.43050593862842
  endloop
 endfacet
 facet normal -0.00000000000000 -0.78585689317540 -0.61840839535756
  outer loop
   vertex 74.59999997058789 -73.10758696553862 8.90757162134867
   vertex 72.99999994117574 -73.10758696553862 8.90757162134867
   vertex 72.99999994117574 -71.94525088804001 7.43050593862842
  endloop
 endfacet
 facet normal -0.78585689317539 -0.00000000000000 -0.61840839535757
  outer loop
   vertex 276.93687057798365 -75.99999994117573 7.33774467932479
   vertex 276.93687057798365 -276.00000005882231 7.33774467932480
   vertex 275.70153858734170 -274.40000002941122 8.90757162134867
  endloop
 endfacet
 facet normal -0.78585689317539 0.00000000000000 -0.61840839535757
  outer loop
   vertex 276.93687057798365 -276.00000005882231 7.33774467932480
   vertex 275.70153858734170 -276.00000005882231 8.90757162134867
   vertex 275.70153858734170 -274.40000002941122 8.90757162134867
  endloop
 endfacet
 facet normal -0.78585689317539 0.00000000000000 -0.61840839535757
  outer loop
   vertex 275.70153858734170 -274.40000002941122 8.90757162134867
   vertex 275.70153858734170 -75.99999994117573 8.90757162134867
   vertex 276.93687057798365 -75.99999994117573 7.33774467932479
  endloop
 endfacet
 facet normal 0.00000000000000 1.00000000000000 -0.00000000000000
  outer loop
   vertex 275.24727825765672 -276.00000005882231 6.00816662930621
   vertex 273.15654595908029 -276.00000005882231 8.90757162134868
   vertex 275.70153858734170 -276.00000005882231 8.90757162134867
  endloop
 endfacet
 facet normal 0.00000000000000 1.00000000000000 0.00000000000000
  outer loop
   vertex 275.24727825765672 -276.00000005882231 6.00816662930621
   vertex 273.03866742510399 -276.00000005882231 8.81481036204505
   vertex 273.15654595908029 -276.00000005882231 8.90757162134868
  endloop
 endfacet
 facet normal 0.00000000000000 1.00000000000000 0.00000000000000
  outer loop
   vertex 275.70153858734170 -276.00000005882231 8.90757162134867
   vertex 276.93687057798365 -276.00000005882231 7.33774467932481
   vertex 275.24727825765672 -276.00000005882231 6.00816662930621
  endloop
 endfacet
 facet normal 0.00000000000000 -1.00000000000000 0.00000000000000
  outer loop
   vertex 275.24727825765672 -75.99999994117573 6.00816662930618
   vertex 276.93687057798365 -75.99999994117573 7.33774467932477
   vertex 275.70153858734170 -75.99999994117573 8.90757162134867
  endloop
 endfacet
 facet normal -0.00000000000000 -1.00000000000000 0.00000000000000
  outer loop
   vertex 275.70153858734170 -75.99999994117573 8.90757162134867
   vertex 273.15654595908029 -75.99999994117573 8.90757162134868
   vertex 275.24727825765672 -75.99999994117573 6.00816662930618
  endloop
 endfacet
 facet normal 0.00000000000000 -1.00000000000000 -0.00000000000000
  outer loop
   vertex 273.15654595908029 -75.99999994117573 8.90757162134868
   vertex 273.03866742510399 -75.99999994117573 8.81481036204505
   vertex 275.24727825765672 -75.99999994117573 6.00816662930618
  endloop
 endfacet
 facet normal 0.61840839535756 0.00000000000000 -0.78585689317540
  outer loop
   vertex 273.03866742510399 -75.99999994117573 8.81481036204505
   vertex 273.15654595908029 -75.99999994117573 8.90757162134867
   vertex 273.15654595908029 -274.40000002941122 8.90757162134867
  endloop
 endfacet
 facet normal 0.61840839535756 0.00000000000000 -0.78585689317540
  outer loop
   vertex 273.15654595908029 -274.40000002941122 8.90757162134867
   vertex 273.03866742510399 -276.00000005882231 8.81481036204505
   vertex 273.03866742510399 -75.99999994117573 8.81481036204505
  endloop
 endfacet
 facet normal 0.61840839535756 0.00000000000000 -0.78585689317540
  outer loop
   vertex 273.15654595908029 -274.40000002941122 8.90757162134867
   vertex 273.15654595908029 -276.00000005882231 8.90757162134867
   vertex 273.03866742510399 -276.00000005882231 8.81481036204505
  endloop
 endfacet
 facet normal 0.78585689317539 0.00000000000000 0.61840839535756
  outer loop
   vertex 275.24727825765672 -276.00000005882231 6.00816662930620
   vertex 275.24727825765672 -75.99999994117573 6.00816662930619
   vertex 273.03866742510399 -75.99999994117573 8.81481036204504
  endloop
 endfacet
 facet normal 0.78585689317539 0.00000000000000 0.61840839535757
  outer loop
   vertex 273.03866742510399 -75.99999994117573 8.81481036204504
   vertex 273.03866742510399 -276.00000005882231 8.81481036204504
   vertex 275.24727825765672 -276.00000005882231 6.00816662930620
  endloop
 endfacet
 facet normal -0.61840839535755 0.00000000000000 0.78585689317540
  outer loop
   vertex 275.24727825765672 -276.00000005882231 6.00816662930620
   vertex 276.93687057798365 -276.00000005882231 7.33774467932481
   vertex 276.93687057798365 -75.99999994117573 7.33774467932479
  endloop
 endfacet
 facet normal -0.61840839535755 0.00000000000000 0.78585689317540
  outer loop
   vertex 276.93687057798365 -75.99999994117573 7.33774467932479
   vertex 275.24727825765672 -75.99999994117573 6.00816662930618
   vertex 275.24727825765672 -276.00000005882231 6.00816662930620
  endloop
 endfacet
 facet normal 0.00000000000000 -1.00000000000000 0.00000000000000
  outer loop
   vertex 280.50000000000000 -283.50000000000000 -1.09242837865133
   vertex 280.50000000000000 -283.50000000000000 8.90757162134867
   vertex 74.59999997058789 -283.50000000000000 8.90757162134867
  endloop
 endfacet
 facet normal 0.00000000000000 -1.00000000000000 -0.00000000000000
  outer loop
   vertex 74.59999997058789 -283.50000000000000 8.90757162134867
   vertex 65.50000000000000 -283.50000000000000 -1.09242837865133
   vertex 280.50000000000000 -283.50000000000000 -1.09242837865133
  endloop
 endfacet
 facet normal -0.00000000000000 -1.00000000000000 0.00000000000000
  outer loop
   vertex 74.59999997058789 -283.50000000000000 8.90757162134867
   vertex 65.50000000000000 -283.50000000000000 8.90757162134867
   vertex 65.50000000000000 -283.50000000000000 -1.09242837865133
  endloop
 endfacet
 facet normal 0.00000000000000 0.00000000000000 -1.00000000000000
  outer loop
   vertex 65.50000000000000 -283.50000000000000 -1.09242837865133
   vertex 65.50000000000000 -68.50000000000003 -1.09242837865133
   vertex 76.20000000000003 -79.20000000000000 -1.09242837865133
  endloop
 endfacet
 facet normal 0.00000000000000 0.00000000000000 -1.00000000000000
  outer loop
   vertex 280.50000000000000 -68.50000000000003 -1.09242837865133
   vertex 269.80000000000007 -79.20000000000000 -1.09242837865133
   vertex 76.20000000000003 -79.20000000000000 -1.09242837865133
  endloop
 endfacet
 facet normal 0.00000000000000 0.00000000000000 -1.00000000000000
  outer loop
   vertex 76.20000000000003 -79.20000000000000 -1.09242837865133
   vertex 65.50000000000000 -68.50000000000003 -1.09242837865133
   vertex 280.50000000000000 -68.50000000000003 -1.09242837865133
  endloop
 endfacet
 facet normal 0.00000000000000 -0.00000000000000 -1.00000000000000
  outer loop
   vertex 280.50000000000000 -68.50000000000003 -1.09242837865133
   vertex 280.50000000000000 -283.50000000000000 -1.09242837865133
   vertex 269.80000000000007 -272.80000000000007 -1.09242837865133
  endloop
 endfacet
 facet normal 0.00000000000000 0.00000000000000 -1.00000000000000
  outer loop
   vertex 269.80000000000007 -272.80000000000007 -1.09242837865133
   vertex 269.80000000000007 -79.20000000000000 -1.09242837865133
   vertex 280.50000000000000 -68.50000000000003 -1.09242837865133
  endloop
 endfacet
 facet normal 0.00000000000000 0.00000000000000 -1.00000000000000
  outer loop
   vertex 280.50000000000000 -283.50000000000000 -1.09242837865133
   vertex 65.50000000000000 -283.50000000000000 -1.09242837865133
   vertex 76.20000000000006 -272.80000000000007 -1.09242837865133
  endloop
 endfacet
 facet normal 0.00000000000000 0.00000000000000 -1.00000000000000
  outer loop
   vertex 76.20000000000006 -272.80000000000007 -1.09242837865133
   vertex 269.80000000000007 -272.80000000000007 -1.09242837865133
   vertex 280.50000000000000 -283.50000000000000 -1.09242837865133
  endloop
 endfacet
 facet normal 0.00000000000000 -0.00000000000000 -1.00000000000000
  outer loop
   vertex 76.20000000000003 -79.20000000000000 -1.09242837865133
   vertex 76.20000000000006 -272.80000000000007 -1.09242837865133
   vertex 65.50000000000000 -283.50000000000000 -1.09242837865133
  endloop
 endfacet
 facet normal 1.00000000000000 0.00000000000000 -0.00000000000000
  outer loop
   vertex 280.50000000000000 -68.50000000000003 -1.09242837865133
   vertex 280.50000000000000 -68.50000000000003 8.90757162134867
   vertex 280.50000000000000 -274.40000002941122 8.90757162134867
  endloop
 endfacet
 facet normal 1.00000000000000 0.00000000000000 0.00000000000000
  outer loop
   vertex 280.50000000000000 -274.40000002941122 8.90757162134867
   vertex 280.50000000000000 -283.50000000000000 -1.09242837865133
   vertex 280.50000000000000 -68.50000000000003 -1.09242837865133
  endloop
 endfacet
 facet normal 1.00000000000000 0.00000000000000 0.00000000000000
  outer loop
   vertex 280.50000000000000 -274.40000002941122 8.90757162134867
   vertex 280.50000000000000 -283.50000000000000 8.90757162134867
   vertex 280.50000000000000 -283.50000000000000 -1.09242837865133
  endloop
 endfacet
 facet normal 0.00000000000000 1.00000000000000 0.00000000000000
  outer loop
   vertex 280.50000000000000 -68.50000000000003 -1.09242837865133
   vertex 65.50000000000000 -68.50000000000003 -1.09242837865133
   vertex 74.59999997058789 -68.50000000000003 8.90757162134867
  endloop
 endfacet
 facet normal 0.00000000000000 1.00000000000000 0.00000000000000
  outer loop
   vertex 65.50000000000000 -68.50000000000003 -1.09242837865133
   vertex 65.50000000000000 -68.50000000000003 8.90757162134867
   vertex 74.59999997058789 -68.50000000000003 8.90757162134867
  endloop
 endfacet
 facet normal -0.00000000000000 1.00000000000000 0.00000000000000
  outer loop
   vertex 74.59999997058789 -68.50000000000003 8.90757162134867
   vertex 280.50000000000000 -68.50000000000003 8.90757162134867
   vertex 280.50000000000000 -68.50000000000003 -1.09242837865133
  endloop
 endfacet
 facet normal -1.00000000000000 0.00000000000000 0.00000000000000
  outer loop
   vertex 65.50000000000000 -68.50000000000003 -1.09242837865133
   vertex 65.50000000000000 -283.50000000000000 -1.09242837865133
   vertex 65.50000000000000 -274.40000002941122 8.90757162134867
  endloop
 endfacet
 facet normal -1.00000000000000 0.00000000000000 0.00000000000000
  outer loop
   vertex 65.50000000000000 -283.50000000000000 -1.09242837865133
   vertex 65.50000000000000 -283.50000000000000 8.90757162134867
   vertex 65.50000000000000 -274.40000002941122 8.90757162134867
  endloop
 endfacet
 facet normal -1.00000000000000 0.00000000000000 0.00000000000000
  outer loop
   vertex 65.50000000000000 -274.40000002941122 8.90757162134867
   vertex 65.50000000000000 -68.50000000000003 8.90757162134867
   vertex 65.50000000000000 -68.50000000000003 -1.09242837865133
  endloop
 endfacet
 facet normal 1.00000000000000 0.00000000000000 0.00000000000000
  outer loop
   vertex 76.20000000000003 -272.80000000000007 8.90757162134867
   vertex 76.20000000000003 -272.80000000000007 -1.09242837865134
   vertex 76.20000000000003 -79.20000000000000 -1.09242837865134
  endloop
 endfacet
 facet normal 1.00000000000000 0.00000000000000 -0.00000000000000
  outer loop
   vertex 76.20000000000003 -79.20000000000000 -1.09242837865134
   vertex 76.20000000000003 -79.20000000000000 8.90757162134867
   vertex 76.20000000000003 -272.80000000000007 8.90757162134867
  endloop
 endfacet
 facet normal 0.00000000000000 1.00000000000000 0.00000000000000
  outer loop
   vertex 269.80000000000007 -272.80000000000007 8.90757162134867
   vertex 269.80000000000007 -272.80000000000007 -1.09242837865134
   vertex 76.20000000000006 -272.80000000000007 -1.09242837865134
  endloop
 endfacet
 facet normal 0.00000000000000 1.00000000000000 0.00000000000000
  outer loop
   vertex 76.20000000000006 -272.80000000000007 -1.09242837865134
   vertex 76.20000000000006 -272.80000000000007 8.90757162134867
   vertex 269.80000000000007 -272.80000000000007 8.90757162134867
  endloop
 endfacet
 facet normal -1.00000000000000 0.00000000000000 0.00000000000000
  outer loop
   vertex 269.80000000000007 -272.80000000000007 -1.09242837865134
   vertex 269.80000000000007 -272.80000000000007 8.90757162134867
   vertex 269.80000000000007 -79.20000000000000 8.90757162134867
  endloop
 endfacet
 facet normal -1.00000000000000 0.00000000000000 -0.00000000000000
  outer loop
   vertex 269.80000000000007 -79.20000000000000 8.90757162134867
   vertex 269.80000000000007 -79.19999999999999 -1.09242837865134
   vertex 269.80000000000007 -272.80000000000007 -1.09242837865134
  endloop
 endfacet
 facet normal 0.00000000000000 -1.00000000000000 0.00000000000000
  outer loop
   vertex 76.20000000000003 -79.19999999999999 8.90757162134867
   vertex 76.20000000000003 -79.19999999999999 -1.09242837865134
   vertex 269.80000000000007 -79.19999999999999 -1.09242837865134
  endloop
 endfacet
 facet normal 0.00000000000000 -1.00000000000000 0.00000000000000
  outer loop
   vertex 269.80000000000007 -79.19999999999999 -1.09242837865134
   vertex 269.80000000000007 -79.19999999999999 8.90757162134867
   vertex 76.20000000000003 -79.19999999999999 8.90757162134867
  endloop
 endfacet
 facet normal 1.00000000000000 0.00000000000000 0.00000000000000
  outer loop
   vertex 130.50000000000006 -238.50000000000000 8.90757162120279
   vertex 130.50000000000006 -238.50000000000000 0.00000000000000
   vertex 130.50000000000006 -113.50000000000003 0.00000000000000
  endloop
 endfacet
 facet normal 1.00000000000000 0.00000000000000 -0.00000000000000
  outer loop
   vertex 130.50000000000006 -113.50000000000003 0.00000000000000
   vertex 130.50000000000006 -113.50000000000003 8.90757162120279
   vertex 130.50000000000006 -238.50000000000000 8.90757162120279
  endloop
 endfacet
 facet normal 0.00000000000000 -1.00000000000000 0.00000000000000
  outer loop
   vertex 130.50000000000006 -113.50000000000003 8.90757162120279
   vertex 130.50000000000006 -113.50000000000003 0.00000000000000
   vertex 215.50000000000009 -113.50000000000003 0.00000000000000
  endloop
 endfacet
 facet normal 0.00000000000000 -1.00000000000000 0.00000000000000
  outer loop
   vertex 215.50000000000009 -113.50000000000003 0.00000000000000
   vertex 215.50000000000009 -113.50000000000003 8.90757162120279
   vertex 130.50000000000006 -113.50000000000003 8.90757162120279
  endloop
 endfacet
 facet normal -1.00000000000000 0.00000000000000 -0.00000000000000
  outer loop
   vertex 215.50000000000009 -113.50000000000003 8.90757162120279
   vertex 215.50000000000009 -113.50000000000003 0.00000000000000
   vertex 215.50000000000009 -238.50000000000000 0.00000000000000
  endloop
 endfacet
 facet normal -1.00000000000000 0.00000000000000 0.00000000000000
  outer loop
   vertex 215.50000000000009 -238.50000000000000 0.00000000000000
   vertex 215.50000000000009 -238.50000000000000 8.90757162120279
   vertex 215.50000000000009 -113.50000000000003 8.90757162120279
  endloop
 endfacet
 facet normal 0.00000000000000 1.00000000000000 0.00000000000000
  outer loop
   vertex 215.50000000000009 -238.50000000000000 8.90757162120279
   vertex 215.50000000000009 -238.50000000000000 0.00000000000000
   vertex 130.50000000000006 -238.50000000000000 0.00000000000000
  endloop
 endfacet
 facet normal 0.00000000000000 1.00000000000000 0.00000000000000
  outer loop
   vertex 130.50000000000006 -238.50000000000000 0.00000000000000
   vertex 130.50000000000006 -238.50000000000000 8.90757162120279
   vertex 215.50000000000009 -238.50000000000000 8.90757162120279
  endloop
 endfacet
 facet normal 0.00000000000000 0.00000000000000 1.00000000000000
  outer loop
   vertex 125.50000000000006 -108.50000000000006 8.90757162120279
   vertex 125.50000000000006 -243.50000000000006 8.90757162120279
   vertex 130.50000000000006 -238.50000000000000 8.90757162120279
  endloop
 endfacet
 facet normal 0.00000000000000 0.00000000000000 1.00000000000000
  outer loop
   vertex 125.50000000000006 -243.50000000000006 8.90757162120279
   vertex 220.50000000000009 -243.50000000000006 8.90757162120279
   vertex 215.50000000000009 -238.50000000000000 8.90757162120279
  endloop
 endfacet
 facet normal 0.00000000000000 0.00000000000000 1.00000000000000
  outer loop
   vertex 215.50000000000009 -238.50000000000000 8.90757162120279
   vertex 130.50000000000006 -238.50000000000000 8.90757162120279
   vertex 125.50000000000006 -243.50000000000006 8.90757162120279
  endloop
 endfacet
 facet normal 0.00000000000000 0.00000000000000 1.00000000000000
  outer loop
   vertex 220.50000000000009 -108.50000000000006 8.90757162120279
   vertex 215.50000000000009 -113.50000000000003 8.90757162120279
   vertex 215.50000000000009 -238.50000000000000 8.90757162120279
  endloop
 endfacet
 facet normal 0.00000000000000 0.00000000000000 1.00000000000000
  outer loop
   vertex 220.50000000000009 -108.50000000000006 8.90757162120279
   vertex 125.50000000000006 -108.50000000000006 8.90757162120279
   vertex 130.50000000000006 -113.50000000000003 8.90757162120279
  endloop
 endfacet
 facet normal -0.00000000000000 0.00000000000000 1.00000000000000
  outer loop
   vertex 215.50000000000009 -238.50000000000000 8.90757162120279
   vertex 220.50000000000009 -243.50000000000006 8.90757162120279
   vertex 220.50000000000009 -108.50000000000006 8.90757162120279
  endloop
 endfacet
 facet normal 0.00000000000000 -0.00000000000000 1.00000000000000
  outer loop
   vertex 130.50000000000006 -238.50000000000000 8.90757162120279
   vertex 130.50000000000006 -113.50000000000003 8.90757162120279
   vertex 125.50000000000006 -108.50000000000006 8.90757162120279
  endloop
 endfacet
 facet normal 0.00000000000000 0.00000000000000 1.00000000000000
  outer loop
   vertex 130.50000000000006 -113.50000000000003 8.90757162120279
   vertex 215.50000000000009 -113.50000000000003 8.90757162120279
   vertex 220.50000000000009 -108.50000000000006 8.90757162120279
  endloop
 endfacet
 facet normal 0.00000000000000 0.00000000000000 -1.00000000000000
  outer loop
   vertex 125.50000000000006 -108.50000000000006 0.00000000000000
   vertex 130.50000000000006 -113.50000000000003 0.00000000000000
   vertex 130.50000000000006 -238.50000000000000 0.00000000000000
  endloop
 endfacet
 facet normal 0.00000000000000 0.00000000000000 -1.00000000000000
  outer loop
   vertex 125.50000000000006 -108.50000000000006 0.00000000000000
   vertex 220.50000000000009 -108.50000000000006 0.00000000000000
   vertex 215.50000000000009 -113.50000000000003 0.00000000000000
  endloop
 endfacet
 facet normal 0.00000000000000 0.00000000000000 -1.00000000000000
  outer loop
   vertex 215.50000000000009 -113.50000000000003 0.00000000000000
   vertex 130.50000000000006 -113.50000000000003 0.00000000000000
   vertex 125.50000000000006 -108.50000000000006 0.00000000000000
  endloop
 endfacet
 facet normal 0.00000000000000 -0.00000000000000 -1.00000000000000
  outer loop
   vertex 220.50000000000009 -108.50000000000006 0.00000000000000
   vertex 220.50000000000009 -243.50000000000006 0.00000000000000
   vertex 215.50000000000009 -238.50000000000000 0.00000000000000
  endloop
 endfacet
 facet normal 0.00000000000000 0.00000000000000 -1.00000000000000
  outer loop
   vertex 215.50000000000009 -238.50000000000000 0.00000000000000
   vertex 215.50000000000009 -113.50000000000003 0.00000000000000
   vertex 220.50000000000009 -108.50000000000006 0.00000000000000
  endloop
 endfacet
 facet normal 0.00000000000000 0.00000000000000 -1.00000000000000
  outer loop
   vertex 220.50000000000009 -243.50000000000006 0.00000000000000
   vertex 125.50000000000006 -243.50000000000006 0.00000000000000
   vertex 130.50000000000006 -238.50000000000000 0.00000000000000
  endloop
 endfacet
 facet normal 0.00000000000000 0.00000000000000 -1.00000000000000
  outer loop
   vertex 130.50000000000006 -238.50000000000000 0.00000000000000
   vertex 215.50000000000009 -238.50000000000000 0.00000000000000
   vertex 220.50000000000009 -243.50000000000006 0.00000000000000
  endloop
 endfacet
 facet normal -0.00000000000000 0.00000000000000 -1.00000000000000
  outer loop
   vertex 130.50000000000006 -238.50000000000000 0.00000000000000
   vertex 125.50000000000006 -243.50000000000006 0.00000000000000
   vertex 125.50000000000006 -108.50000000000006 0.00000000000000
  endloop
 endfacet
 facet normal 0.00000000000000 -1.00000000000000 0.00000000000000
  outer loop
   vertex 125.50000000000006 -243.50000000000006 8.90757162120279
   vertex 125.50000000000006 -243.50000000000006 0.00000000000000
   vertex 220.50000000000009 -243.50000000000006 0.00000000000000
  endloop
 endfacet
 facet normal 0.00000000000000 -1.00000000000000 0.00000000000000
  outer loop
   vertex 220.50000000000009 -243.50000000000006 0.00000000000000
   vertex 220.50000000000009 -243.50000000000006 8.90757162120279
   vertex 125.50000000000006 -243.50000000000006 8.90757162120279
  endloop
 endfacet
 facet normal 1.00000000000000 0.00000000000000 0.00000000000000
  outer loop
   vertex 220.50000000000009 -243.50000000000006 8.90757162120279
   vertex 220.50000000000009 -243.50000000000006 0.00000000000000
   vertex 220.50000000000009 -108.50000000000006 0.00000000000000
  endloop
 endfacet
 facet normal 1.00000000000000 0.00000000000000 -0.00000000000000
  outer loop
   vertex 220.50000000000009 -108.50000000000006 0.00000000000000
   vertex 220.50000000000009 -108.50000000000006 8.90757162120279
   vertex 220.50000000000009 -243.50000000000006 8.90757162120279
  endloop
 endfacet
 facet normal 0.00000000000000 1.00000000000000 0.00000000000000
  outer loop
   vertex 220.50000000000009 -108.50000000000006 8.90757162120279
   vertex 220.50000000000009 -108.50000000000006 0.00000000000000
   vertex 125.50000000000006 -108.50000000000006 0.00000000000000
  endloop
 endfacet
 facet normal 0.00000000000000 1.00000000000000 0.00000000000000
  outer loop
   vertex 125.50000000000006 -108.50000000000006 0.00000000000000
   vertex 125.50000000000006 -108.50000000000006 8.90757162120279
   vertex 220.50000000000009 -108.50000000000006 8.90757162120279
  endloop
 endfacet
 facet normal -1.00000000000000 0.00000000000000 -0.00000000000000
  outer loop
   vertex 125.50000000000006 -108.50000000000006 8.90757162120279
   vertex 125.50000000000006 -108.50000000000006 0.00000000000000
   vertex 125.50000000000006 -243.50000000000006 0.00000000000000
  endloop
 endfacet
 facet normal -1.00000000000000 0.00000000000000 0.00000000000000
  outer loop
   vertex 125.50000000000006 -243.50000000000006 0.00000000000000
   vertex 125.50000000000006 -243.50000000000006 8.90757162120279
   vertex 125.50000000000006 -108.50000000000006 8.90757162120279
  endloop
 endfacet
 facet normal 0.51090129565474 0.85963938142590 0.00000000000000
  outer loop
   vertex 130.50000000000006 -108.50000000000006 8.90757162143922
   vertex 130.50000000000006 -108.50000000000006 -0.00000000000000
   vertex 81.20000000000003 -79.19999999999999 -0.00000000000000
  endloop
 endfacet
 facet normal 0.51090129565474 0.85963938142590 -0.00000000000000
  outer loop
   vertex 81.20000000000003 -79.19999999999999 -0.00000000000000
   vertex 81.20000000000003 -79.19999999999999 8.90757162143922
   vertex 130.50000000000006 -108.50000000000006 8.90757162143922
  endloop
 endfacet
 facet normal 0.00000000000000 1.00000000000000 0.00000000000000
  outer loop
   vertex 81.20000000000003 -79.20000000000000 8.90757162143922
   vertex 81.20000000000003 -79.20000000000000 0.00000000000000
   vertex 76.20000000000003 -79.20000000000000 0.00000000000000
  endloop
 endfacet
 facet normal 0.00000000000000 1.00000000000000 0.00000000000000
  outer loop
   vertex 76.20000000000003 -79.20000000000000 0.00000000000000
   vertex 76.20000000000003 -79.20000000000000 8.90757162143922
   vertex 81.20000000000003 -79.20000000000000 8.90757162143922
  endloop
 endfacet
 facet normal -1.00000000000000 0.00000000000000 -0.00000000000000
  outer loop
   vertex 76.20000000000003 -79.20000000000000 8.90757162143922
   vertex 76.20000000000003 -79.20000000000000 0.00000000000000
   vertex 76.20000000000003 -84.20000000000000 0.00000000000000
  endloop
 endfacet
 facet normal -1.00000000000000 0.00000000000000 0.00000000000000
  outer loop
   vertex 76.20000000000003 -84.20000000000000 0.00000000000000
   vertex 76.20000000000003 -84.20000000000000 8.90757162143922
   vertex 76.20000000000003 -79.20000000000000 8.90757162143922
  endloop
 endfacet
 facet normal 0.00000000000000 0.00000000000000 1.00000000000000
  outer loop
   vertex 76.20000000000003 -84.20000000000000 8.90757162143922
   vertex 125.50000000000006 -113.50000000000007 8.90757162143922
   vertex 125.50000000000006 -108.50000000000006 8.90757162143922
  endloop
 endfacet
 facet normal 0.00000000000000 0.00000000000000 1.00000000000000
  outer loop
   vertex 125.50000000000006 -108.50000000000006 8.90757162143922
   vertex 81.20000000000003 -79.20000000000000 8.90757162143922
   vertex 76.20000000000003 -84.20000000000000 8.90757162143922
  endloop
 endfacet
 facet normal 0.00000000000000 0.00000000000000 1.00000000000000
  outer loop
   vertex 81.20000000000003 -79.20000000000000 8.90757162143922
   vertex 76.20000000000003 -79.20000000000000 8.90757162143922
   vertex 76.20000000000003 -84.20000000000000 8.90757162143922
  endloop
 endfacet
 facet normal 0.00000000000000 -0.00000000000000 1.00000000000000
  outer loop
   vertex 125.50000000000006 -108.50000000000006 8.90757162143922
   vertex 130.50000000000006 -108.50000000000006 8.90757162143922
   vertex 81.20000000000003 -79.20000000000000 8.90757162143922
  endloop
 endfacet
 facet normal 0.00000000000000 0.00000000000000 -1.00000000000000
  outer loop
   vertex 76.20000000000003 -84.20000000000000 0.00000000000000
   vertex 81.20000000000003 -79.20000000000000 0.00000000000000
   vertex 125.50000000000006 -108.50000000000006 0.00000000000000
  endloop
 endfacet
 facet normal 0.00000000000000 0.00000000000000 -1.00000000000000
  outer loop
   vertex 76.20000000000003 -84.20000000000000 0.00000000000000
   vertex 76.20000000000003 -79.20000000000000 0.00000000000000
   vertex 81.20000000000003 -79.20000000000000 0.00000000000000
  endloop
 endfacet
 facet normal 0.00000000000000 0.00000000000000 -1.00000000000000
  outer loop
   vertex 81.20000000000003 -79.20000000000000 0.00000000000000
   vertex 130.50000000000006 -108.50000000000006 0.00000000000000
   vertex 125.50000000000006 -108.50000000000006 0.00000000000000
  endloop
 endfacet
 facet normal -0.00000000000000 -0.00000000000000 -1.00000000000000
  outer loop
   vertex 125.50000000000006 -108.50000000000006 0.00000000000000
   vertex 125.50000000000006 -113.50000000000007 0.00000000000000
   vertex 76.20000000000003 -84.20000000000000 0.00000000000000
  endloop
 endfacet
 facet normal -0.51090129565474 -0.85963938142590 -0.00000000000000
  outer loop
   vertex 76.20000000000003 -84.20000000000000 8.90757162143922
   vertex 76.20000000000003 -84.20000000000000 -0.00000000000000
   vertex 125.50000000000006 -113.50000000000007 -0.00000000000000
  endloop
 endfacet
 facet normal -0.51090129565474 -0.85963938142590 0.00000000000000
  outer loop
   vertex 125.50000000000006 -113.50000000000007 -0.00000000000000
   vertex 125.50000000000006 -113.50000000000007 8.90757162143922
   vertex 76.20000000000003 -84.20000000000000 8.90757162143922
  endloop
 endfacet
 facet normal 1.00000000000000 0.00000000000000 0.00000000000000
  outer loop
   vertex 125.50000000000006 -113.50000000000007 8.90757162143922
   vertex 125.50000000000006 -113.50000000000007 0.00000000000000
   vertex 125.50000000000006 -108.50000000000006 0.00000000000000
  endloop
 endfacet
 facet normal 1.00000000000000 0.00000000000000 -0.00000000000000
  outer loop
   vertex 125.50000000000006 -108.50000000000006 0.00000000000000
   vertex 125.50000000000006 -108.50000000000006 8.90757162143922
   vertex 125.50000000000006 -113.50000000000007 8.90757162143922
  endloop
 endfacet
 facet normal 0.00000000000000 -1.00000000000000 0.00000000000000
  outer loop
   vertex 125.50000000000006 -108.50000000000006 8.90757162143922
   vertex 125.50000000000006 -108.50000000000006 0.00000000000000
   vertex 130.50000000000006 -108.50000000000006 0.00000000000000
  endloop
 endfacet
 facet normal 0.00000000000000 -1.00000000000000 0.00000000000000
  outer loop
   vertex 130.50000000000006 -108.50000000000006 0.00000000000000
   vertex 130.50000000000006 -108.50000000000006 8.90757162143922
   vertex 125.50000000000006 -108.50000000000006 8.90757162143922
  endloop
 endfacet
 facet normal -0.51090129565474 0.85963938142590 0.00000000000000
  outer loop
   vertex 264.80000000000013 -79.19999999999999 8.90757162143920
   vertex 264.80000000000013 -79.19999999999999 -0.00000000000000
   vertex 215.50000000000009 -108.50000000000006 -0.00000000000000
  endloop
 endfacet
 facet normal -0.51090129565474 0.85963938142590 0.00000000000000
  outer loop
   vertex 215.50000000000009 -108.50000000000006 -0.00000000000000
   vertex 215.50000000000009 -108.50000000000006 8.90757162143920
   vertex 264.80000000000013 -79.19999999999999 8.90757162143920
  endloop
 endfacet
 facet normal 0.00000000000000 1.00000000000000 0.00000000000000
  outer loop
   vertex 269.80000000000013 -79.20000000000000 8.90757162143920
   vertex 269.80000000000013 -79.20000000000000 0.00000000000000
   vertex 264.80000000000013 -79.20000000000000 0.00000000000000
  endloop
 endfacet
 facet normal 0.00000000000000 1.00000000000000 0.00000000000000
  outer loop
   vertex 264.80000000000013 -79.20000000000000 0.00000000000000
   vertex 264.80000000000013 -79.20000000000000 8.90757162143920
   vertex 269.80000000000013 -79.20000000000000 8.90757162143920
  endloop
 endfacet
 facet normal 1.00000000000000 0.00000000000000 0.00000000000000
  outer loop
   vertex 269.80000000000013 -84.20000000000000 8.90757162143920
   vertex 269.80000000000013 -84.20000000000000 0.00000000000000
   vertex 269.80000000000013 -79.20000000000000 0.00000000000000
  endloop
 endfacet
 facet normal 1.00000000000000 0.00000000000000 -0.00000000000000
  outer loop
   vertex 269.80000000000013 -79.20000000000000 0.00000000000000
   vertex 269.80000000000013 -79.20000000000000 8.90757162143920
   vertex 269.80000000000013 -84.20000000000000 8.90757162143920
  endloop
 endfacet
 facet normal 0.00000000000000 0.00000000000000 1.00000000000000
  outer loop
   vertex 269.80000000000013 -84.20000000000000 8.90757162143920
   vertex 264.80000000000013 -79.20000000000000 8.90757162143920
   vertex 220.50000000000009 -108.50000000000006 8.90757162143920
  endloop
 endfacet
 facet normal 0.00000000000000 -0.00000000000000 1.00000000000000
  outer loop
   vertex 269.80000000000013 -84.20000000000000 8.90757162143920
   vertex 269.80000000000013 -79.20000000000000 8.90757162143920
   vertex 264.80000000000013 -79.20000000000000 8.90757162143920
  endloop
 endfacet
 facet normal 0.00000000000000 0.00000000000000 1.00000000000000
  outer loop
   vertex 264.80000000000013 -79.20000000000000 8.90757162143920
   vertex 215.50000000000009 -108.50000000000006 8.90757162143920
   vertex 220.50000000000009 -108.50000000000006 8.90757162143920
  endloop
 endfacet
 facet normal -0.00000000000000 0.00000000000000 1.00000000000000
  outer loop
   vertex 220.50000000000009 -108.50000000000006 8.90757162143920
   vertex 220.50000000000009 -113.50000000000007 8.90757162143920
   vertex 269.80000000000013 -84.20000000000000 8.90757162143920
  endloop
 endfacet
 facet normal 0.00000000000000 0.00000000000000 -1.00000000000000
  outer loop
   vertex 269.80000000000013 -84.20000000000000 0.00000000000000
   vertex 220.50000000000009 -113.50000000000007 0.00000000000000
   vertex 220.50000000000009 -108.50000000000006 0.00000000000000
  endloop
 endfacet
 facet normal 0.00000000000000 0.00000000000000 -1.00000000000000
  outer loop
   vertex 220.50000000000009 -108.50000000000006 0.00000000000000
   vertex 264.80000000000013 -79.20000000000000 0.00000000000000
   vertex 269.80000000000013 -84.20000000000000 0.00000000000000
  endloop
 endfacet
 facet normal 0.00000000000000 0.00000000000000 -1.00000000000000
  outer loop
   vertex 264.80000000000013 -79.20000000000000 0.00000000000000
   vertex 269.80000000000013 -79.20000000000000 0.00000000000000
   vertex 269.80000000000013 -84.20000000000000 0.00000000000000
  endloop
 endfacet
 facet normal 0.00000000000000 0.00000000000000 -1.00000000000000
  outer loop
   vertex 220.50000000000009 -108.50000000000006 0.00000000000000
   vertex 215.50000000000009 -108.50000000000006 0.00000000000000
   vertex 264.80000000000013 -79.20000000000000 0.00000000000000
  endloop
 endfacet
 facet normal 0.51090129565474 -0.85963938142590 0.00000000000000
  outer loop
   vertex 220.50000000000009 -113.50000000000009 8.90757162143920
   vertex 220.50000000000009 -113.50000000000009 -0.00000000000000
   vertex 269.80000000000013 -84.20000000000000 -0.00000000000000
  endloop
 endfacet
 facet normal 0.51090129565474 -0.85963938142590 0.00000000000000
  outer loop
   vertex 269.80000000000013 -84.20000000000000 -0.00000000000000
   vertex 269.80000000000013 -84.20000000000000 8.90757162143920
   vertex 220.50000000000009 -113.50000000000009 8.90757162143920
  endloop
 endfacet
 facet normal -1.00000000000000 0.00000000000000 -0.00000000000000
  outer loop
   vertex 220.50000000000009 -108.50000000000006 8.90757162143920
   vertex 220.50000000000009 -108.50000000000006 0.00000000000000
   vertex 220.50000000000009 -113.50000000000007 0.00000000000000
  endloop
 endfacet
 facet normal -1.00000000000000 0.00000000000000 0.00000000000000
  outer loop
   vertex 220.50000000000009 -113.50000000000007 0.00000000000000
   vertex 220.50000000000009 -113.50000000000007 8.90757162143920
   vertex 220.50000000000009 -108.50000000000006 8.90757162143920
  endloop
 endfacet
 facet normal 0.00000000000000 -1.00000000000000 0.00000000000000
  outer loop
   vertex 215.50000000000009 -108.50000000000006 8.90757162143920
   vertex 215.50000000000009 -108.50000000000006 0.00000000000000
   vertex 220.50000000000009 -108.50000000000006 0.00000000000000
  endloop
 endfacet
 facet normal 0.00000000000000 -1.00000000000000 0.00000000000000
  outer loop
   vertex 220.50000000000009 -108.50000000000006 0.00000000000000
   vertex 220.50000000000009 -108.50000000000006 8.90757162143920
   vertex 215.50000000000009 -108.50000000000006 8.90757162143920
  endloop
 endfacet
 facet normal 0.51090129565474 -0.85963938142590 0.00000000000000
  outer loop
   vertex 81.20000000000003 -272.80000000000007 8.90757162158515
   vertex 81.20000000000003 -272.80000000000007 -1.09242837808291
   vertex 130.50000000000006 -243.50000000000006 -1.09242837808291
  endloop
 endfacet
 facet normal 0.51090129565474 -0.85963938142590 0.00000000000000
  outer loop
   vertex 130.50000000000006 -243.50000000000006 -1.09242837808291
   vertex 130.50000000000006 -243.50000000000006 8.90757162158515
   vertex 81.20000000000003 -272.80000000000007 8.90757162158515
  endloop
 endfacet
 facet normal 0.00000000000000 -1.00000000000000 0.00000000000000
  outer loop
   vertex 76.20000000000003 -272.80000000000007 8.90757162158515
   vertex 76.20000000000003 -272.80000000000007 -1.09242837808291
   vertex 81.20000000000003 -272.80000000000007 -1.09242837808291
  endloop
 endfacet
 facet normal 0.00000000000000 -1.00000000000000 0.00000000000000
  outer loop
   vertex 81.20000000000003 -272.80000000000007 -1.09242837808291
   vertex 81.20000000000003 -272.80000000000007 8.90757162158515
   vertex 76.20000000000003 -272.80000000000007 8.90757162158515
  endloop
 endfacet
 facet normal -1.00000000000000 0.00000000000000 -0.00000000000000
  outer loop
   vertex 76.20000000000003 -267.80000000000007 8.90757162158515
   vertex 76.20000000000003 -267.80000000000007 -1.09242837808291
   vertex 76.20000000000003 -272.80000000000007 -1.09242837808291
  endloop
 endfacet
 facet normal -1.00000000000000 0.00000000000000 0.00000000000000
  outer loop
   vertex 76.20000000000003 -272.80000000000007 -1.09242837808291
   vertex 76.20000000000003 -272.80000000000007 8.90757162158515
   vertex 76.20000000000003 -267.80000000000007 8.90757162158515
  endloop
 endfacet
 facet normal -0.00000000000000 0.00000000000000 1.00000000000000
  outer loop
   vertex 76.20000000000003 -267.80000000000007 8.90757162158515
   vertex 81.20000000000003 -272.80000000000007 8.90757162158515
   vertex 125.50000000000006 -243.50000000000006 8.90757162158515
  endloop
 endfacet
 facet normal 0.00000000000000 0.00000000000000 1.00000000000000
  outer loop
   vertex 76.20000000000003 -267.80000000000007 8.90757162158515
   vertex 76.20000000000003 -272.80000000000007 8.90757162158515
   vertex 81.20000000000003 -272.80000000000007 8.90757162158515
  endloop
 endfacet
 facet normal 0.00000000000000 0.00000000000000 1.00000000000000
  outer loop
   vertex 81.20000000000003 -272.80000000000007 8.90757162158515
   vertex 130.50000000000006 -243.50000000000006 8.90757162158515
   vertex 125.50000000000006 -243.50000000000006 8.90757162158515
  endloop
 endfacet
 facet normal 0.00000000000000 -0.00000000000000 1.00000000000000
  outer loop
   vertex 125.50000000000006 -243.50000000000006 8.90757162158515
   vertex 125.50000000000006 -238.50000000000000 8.90757162158515
   vertex 76.20000000000003 -267.80000000000007 8.90757162158515
  endloop
 endfacet
 facet normal 0.00000000000000 0.00000000000000 -1.00000000000000
  outer loop
   vertex 76.20000000000003 -267.80000000000007 -1.09242837808291
   vertex 125.50000000000006 -238.50000000000000 -1.09242837808291
   vertex 125.50000000000006 -243.50000000000006 -1.09242837808291
  endloop
 endfacet
 facet normal 0.00000000000000 0.00000000000000 -1.00000000000000
  outer loop
   vertex 125.50000000000006 -243.50000000000006 -1.09242837808291
   vertex 81.20000000000003 -272.80000000000007 -1.09242837808291
   vertex 76.20000000000003 -267.80000000000007 -1.09242837808291
  endloop
 endfacet
 facet normal 0.00000000000000 0.00000000000000 -1.00000000000000
  outer loop
   vertex 81.20000000000003 -272.80000000000007 -1.09242837808291
   vertex 76.20000000000003 -272.80000000000007 -1.09242837808291
   vertex 76.20000000000003 -267.80000000000007 -1.09242837808291
  endloop
 endfacet
 facet normal 0.00000000000000 -0.00000000000000 -1.00000000000000
  outer loop
   vertex 125.50000000000006 -243.50000000000006 -1.09242837808291
   vertex 130.50000000000006 -243.50000000000006 -1.09242837808291
   vertex 81.20000000000003 -272.80000000000007 -1.09242837808291
  endloop
 endfacet
 facet normal -0.51090129565474 0.85963938142590 0.00000000000000
  outer loop
   vertex 125.50000000000006 -238.50000000000000 8.90757162158515
   vertex 125.50000000000006 -238.50000000000000 -1.09242837808291
   vertex 76.20000000000003 -267.80000000000007 -1.09242837808291
  endloop
 endfacet
 facet normal -0.51090129565474 0.85963938142590 0.00000000000000
  outer loop
   vertex 76.20000000000003 -267.80000000000007 -1.09242837808291
   vertex 76.20000000000003 -267.80000000000007 8.90757162158515
   vertex 125.50000000000006 -238.50000000000000 8.90757162158515
  endloop
 endfacet
 facet normal 1.00000000000000 0.00000000000000 0.00000000000000
  outer loop
   vertex 125.50000000000006 -243.50000000000006 8.90757162158515
   vertex 125.50000000000006 -243.50000000000006 -1.09242837808291
   vertex 125.50000000000006 -238.50000000000000 -1.09242837808291
  endloop
 endfacet
 facet normal 1.00000000000000 0.00000000000000 -0.00000000000000
  outer loop
   vertex 125.50000000000006 -238.50000000000000 -1.09242837808291
   vertex 125.50000000000006 -238.50000000000000 8.90757162158515
   vertex 125.50000000000006 -243.50000000000006 8.90757162158515
  endloop
 endfacet
 facet normal 0.00000000000000 1.00000000000000 0.00000000000000
  outer loop
   vertex 130.50000000000006 -243.50000000000006 8.90757162158515
   vertex 130.50000000000006 -243.50000000000006 -1.09242837808291
   vertex 125.50000000000006 -243.50000000000006 -1.09242837808291
  endloop
 endfacet
 facet normal 0.00000000000000 1.00000000000000 0.00000000000000
  outer loop
   vertex 125.50000000000006 -243.50000000000006 -1.09242837808291
   vertex 125.50000000000006 -243.50000000000006 8.90757162158515
   vertex 130.50000000000006 -243.50000000000006 8.90757162158515
  endloop
 endfacet
 facet normal -0.51090129565474 -0.85963938142590 -0.00000000000000
  outer loop
   vertex 215.50000000000009 -243.50000000000006 8.90757162120274
   vertex 215.50000000000009 -243.50000000000006 -0.00000000000000
   vertex 264.80000000000013 -272.80000000000007 -0.00000000000000
  endloop
 endfacet
 facet normal -0.51090129565474 -0.85963938142590 0.00000000000000
  outer loop
   vertex 264.80000000000013 -272.80000000000007 -0.00000000000000
   vertex 264.80000000000013 -272.80000000000007 8.90757162120274
   vertex 215.50000000000009 -243.50000000000006 8.90757162120274
  endloop
 endfacet
 facet normal 0.00000000000000 -1.00000000000000 0.00000000000000
  outer loop
   vertex 264.80000000000013 -272.80000000000007 8.90757162120274
   vertex 264.80000000000013 -272.80000000000007 0.00000000000000
   vertex 269.80000000000013 -272.80000000000007 0.00000000000000
  endloop
 endfacet
 facet normal 0.00000000000000 -1.00000000000000 0.00000000000000
  outer loop
   vertex 269.80000000000013 -272.80000000000007 0.00000000000000
   vertex 269.80000000000013 -272.80000000000007 8.90757162120274
   vertex 264.80000000000013 -272.80000000000007 8.90757162120274
  endloop
 endfacet
 facet normal 1.00000000000000 0.00000000000000 0.00000000000000
  outer loop
   vertex 269.80000000000013 -272.80000000000007 8.90757162120274
   vertex 269.80000000000013 -272.80000000000007 0.00000000000000
   vertex 269.80000000000013 -267.80000000000007 0.00000000000000
  endloop
 endfacet
 facet normal 1.00000000000000 0.00000000000000 -0.00000000000000
  outer loop
   vertex 269.80000000000013 -267.80000000000007 0.00000000000000
   vertex 269.80000000000013 -267.80000000000007 8.90757162120274
   vertex 269.80000000000013 -272.80000000000007 8.90757162120274
  endloop
 endfacet
 facet normal 0.00000000000000 0.00000000000000 1.00000000000000
  outer loop
   vertex 269.80000000000013 -267.80000000000007 8.90757162120274
   vertex 220.50000000000009 -238.50000000000000 8.90757162120274
   vertex 220.50000000000009 -243.50000000000006 8.90757162120274
  endloop
 endfacet
 facet normal 0.00000000000000 0.00000000000000 1.00000000000000
  outer loop
   vertex 220.50000000000009 -243.50000000000006 8.90757162120274
   vertex 264.80000000000013 -272.80000000000007 8.90757162120274
   vertex 269.80000000000013 -267.80000000000007 8.90757162120274
  endloop
 endfacet
 facet normal 0.00000000000000 0.00000000000000 1.00000000000000
  outer loop
   vertex 264.80000000000013 -272.80000000000007 8.90757162120274
   vertex 269.80000000000013 -272.80000000000007 8.90757162120274
   vertex 269.80000000000013 -267.80000000000007 8.90757162120274
  endloop
 endfacet
 facet normal 0.00000000000000 0.00000000000000 1.00000000000000
  outer loop
   vertex 220.50000000000009 -243.50000000000006 8.90757162120274
   vertex 215.50000000000009 -243.50000000000006 8.90757162120274
   vertex 264.80000000000013 -272.80000000000007 8.90757162120274
  endloop
 endfacet
 facet normal -0.00000000000000 0.00000000000000 -1.00000000000000
  outer loop
   vertex 269.80000000000013 -267.80000000000007 0.00000000000000
   vertex 264.80000000000013 -272.80000000000007 0.00000000000000
   vertex 220.50000000000009 -243.50000000000006 0.00000000000000
  endloop
 endfacet
 facet normal 0.00000000000000 -0.00000000000000 -1.00000000000000
  outer loop
   vertex 269.80000000000013 -267.80000000000007 0.00000000000000
   vertex 269.80000000000013 -272.80000000000007 0.00000000000000
   vertex 264.80000000000013 -272.80000000000007 0.00000000000000
  endloop
 endfacet
 facet normal 0.00000000000000 0.00000000000000 -1.00000000000000
  outer loop
   vertex 264.80000000000013 -272.80000000000007 0.00000000000000
   vertex 215.50000000000009 -243.50000000000006 0.00000000000000
   vertex 220.50000000000009 -243.50000000000006 0.00000000000000
  endloop
 endfacet
 facet normal 0.00000000000000 0.00000000000000 -1.00000000000000
  outer loop
   vertex 220.50000000000009 -243.50000000000006 0.00000000000000
   vertex 220.50000000000009 -238.50000000000000 0.00000000000000
   vertex 269.80000000000013 -267.80000000000007 0.00000000000000
  endloop
 endfacet
 facet normal 0.51090129565474 0.85963938142590 0.00000000000000
  outer loop
   vertex 269.80000000000013 -267.80000000000007 8.90757162120274
   vertex 269.80000000000013 -267.80000000000007 -0.00000000000000
   vertex 220.50000000000009 -238.50000000000000 -0.00000000000000
  endloop
 endfacet
 facet normal 0.51090129565474 0.85963938142590 -0.00000000000000
  outer loop
   vertex 220.50000000000009 -238.50000000000000 -0.00000000000000
   vertex 220.50000000000009 -238.50000000000000 8.90757162120274
   vertex 269.80000000000013 -267.80000000000007 8.90757162120274
  endloop
 endfacet
 facet normal -1.00000000000000 0.00000000000000 -0.00000000000000
  outer loop
   vertex 220.50000000000009 -238.50000000000000 8.90757162120274
   vertex 220.50000000000009 -238.50000000000000 0.00000000000000
   vertex 220.50000000000009 -243.50000000000006 0.00000000000000
  endloop
 endfacet
 facet normal -1.00000000000000 0.00000000000000 0.00000000000000
  outer loop
   vertex 220.50000000000009 -243.50000000000006 0.00000000000000
   vertex 220.50000000000009 -243.50000000000006 8.90757162120274
   vertex 220.50000000000009 -238.50000000000000 8.90757162120274
  endloop
 endfacet
 facet normal 0.00000000000000 1.00000000000000 0.00000000000000
  outer loop
   vertex 220.50000000000009 -243.50000000000006 8.90757162120274
   vertex 220.50000000000009 -243.50000000000006 0.00000000000000
   vertex 215.50000000000009 -243.50000000000006 0.00000000000000
  endloop
 endfacet
 facet normal 0.00000000000000 1.00000000000000 0.00000000000000
  outer loop
   vertex 215.50000000000009 -243.50000000000006 0.00000000000000
   vertex 215.50000000000009 -243.50000000000006 8.90757162120274
   vertex 220.50000000000009 -243.50000000000006 8.90757162120274
  endloop
 endfacet
endsolid STL file created by Vectorworks 2022 SP1 (Build 619242) (64-Bit)
