solid STL file created by Vectorworks 2022 SP1 (Build 619242) (64-Bit)
 facet normal 0.00000000000000 0.00000000000000 1.00000000000000
  outer loop
   vertex -235.27777767646910 -359.28543674016476 0.20000000000000
   vertex -335.27777773529340 -197.75269239992105 0.20000000000000
   vertex -435.27777779411770 -359.28543674016476 0.20000000000000
  endloop
 endfacet
 facet normal 0.00000000000000 -1.00000000000000 0.00000000000000
  outer loop
   vertex -435.27777779411764 -359.28543674016476 0.20000000000000
   vertex -435.27777779411764 -359.28543674016476 0.00000000000000
   vertex -235.27777767646910 -359.28543674016476 0.00000000000000
  endloop
 endfacet
 facet normal 0.00000000000000 -1.00000000000000 0.00000000000000
  outer loop
   vertex -235.27777767646910 -359.28543674016476 0.00000000000000
   vertex -235.27777767646910 -359.28543674016476 0.20000000000000
   vertex -435.27777779411764 -359.28543674016476 0.20000000000000
  endloop
 endfacet
 facet normal 0.85025680906127 0.52636808285167 0.00000000000000
  outer loop
   vertex -235.27777767646910 -359.28543674016476 0.20000000000000
   vertex -235.27777767646910 -359.28543674016476 0.00000000000000
   vertex -335.27777773529340 -197.75269239992105 0.00000000000000
  endloop
 endfacet
 facet normal 0.85025680906127 0.52636808285167 -0.00000000000000
  outer loop
   vertex -335.27777773529340 -197.75269239992105 0.00000000000000
   vertex -335.27777773529340 -197.75269239992105 0.20000000000000
   vertex -235.27777767646910 -359.28543674016476 0.20000000000000
  endloop
 endfacet
 facet normal -0.85025680906127 0.52636808285167 0.00000000000000
  outer loop
   vertex -335.27777773529328 -197.75269239992102 0.20000000000000
   vertex -335.27777773529328 -197.75269239992102 0.00000000000000
   vertex -435.27777779411770 -359.28543674016476 0.00000000000000
  endloop
 endfacet
 facet normal -0.85025680906127 0.52636808285167 0.00000000000000
  outer loop
   vertex -435.27777779411770 -359.28543674016476 0.00000000000000
   vertex -435.27777779411770 -359.28543674016476 0.20000000000000
   vertex -335.27777773529328 -197.75269239992102 0.20000000000000
  endloop
 endfacet
 facet normal 0.00000000000000 0.00000000000000 -1.00000000000000
  outer loop
   vertex -435.27777779411770 -359.28543674016476 0.00000000000000
   vertex -335.27777773529340 -197.75269239992105 0.00000000000000
   vertex -235.27777767646910 -359.28543674016476 0.00000000000000
  endloop
 endfacet
endsolid STL file created by Vectorworks 2022 SP1 (Build 619242) (64-Bit)
