solid STL file created by Vectorworks 2022 SP1 (Build 619242) (64-Bit)
 facet normal -1.00000000000000 0.00000000000000 0.00000000000000
  outer loop
   vertex 63.00000000000000 -66.00000000000001 -11.09242837865134
   vertex 63.00000000000000 -286.00000000000000 -11.09242837865134
   vertex 63.00000000000000 -257.25000002941118 -1.09242837865133
  endloop
 endfacet
 facet normal -1.00000000000000 0.00000000000000 0.00000000000000
  outer loop
   vertex 63.00000000000000 -286.00000000000000 -11.09242837865134
   vertex 63.00000000000000 -286.00000000000000 -1.09242837865133
   vertex 63.00000000000000 -257.25000002941118 -1.09242837865133
  endloop
 endfacet
 facet normal -1.00000000000000 0.00000000000000 0.00000000000000
  outer loop
   vertex 63.00000000000000 -257.25000002941118 -1.09242837865133
   vertex 63.00000000000000 -66.00000000000001 -1.09242837865133
   vertex 63.00000000000000 -66.00000000000001 -11.09242837865134
  endloop
 endfacet
 facet normal 0.00000000000000 -1.00000000000000 0.00000000000000
  outer loop
   vertex 283.00000000000000 -286.00000000000000 -11.09242837865134
   vertex 283.00000000000000 -286.00000000000000 -1.09242837865133
   vertex 101.74999997058791 -286.00000000000000 -1.09242837865133
  endloop
 endfacet
 facet normal 0.00000000000000 -1.00000000000000 -0.00000000000000
  outer loop
   vertex 101.74999997058791 -286.00000000000000 -1.09242837865133
   vertex 63.00000000000000 -286.00000000000000 -11.09242837865134
   vertex 283.00000000000000 -286.00000000000000 -11.09242837865134
  endloop
 endfacet
 facet normal -0.00000000000000 -1.00000000000000 0.00000000000000
  outer loop
   vertex 101.74999997058791 -286.00000000000000 -1.09242837865133
   vertex 63.00000000000000 -286.00000000000000 -1.09242837865133
   vertex 63.00000000000000 -286.00000000000000 -11.09242837865134
  endloop
 endfacet
 facet normal 1.00000000000000 0.00000000000000 -0.00000000000000
  outer loop
   vertex 283.00000000000000 -66.00000000000001 -11.09242837865134
   vertex 283.00000000000000 -66.00000000000001 -1.09242837865133
   vertex 283.00000000000000 -257.25000002941118 -1.09242837865133
  endloop
 endfacet
 facet normal 1.00000000000000 0.00000000000000 0.00000000000000
  outer loop
   vertex 283.00000000000000 -257.25000002941118 -1.09242837865133
   vertex 283.00000000000000 -286.00000000000000 -11.09242837865134
   vertex 283.00000000000000 -66.00000000000001 -11.09242837865134
  endloop
 endfacet
 facet normal 1.00000000000000 0.00000000000000 0.00000000000000
  outer loop
   vertex 283.00000000000000 -257.25000002941118 -1.09242837865133
   vertex 283.00000000000000 -286.00000000000000 -1.09242837865133
   vertex 283.00000000000000 -286.00000000000000 -11.09242837865134
  endloop
 endfacet
 facet normal 0.00000000000000 1.00000000000000 0.00000000000000
  outer loop
   vertex 283.00000000000000 -66.00000000000001 -11.09242837865134
   vertex 63.00000000000000 -66.00000000000001 -11.09242837865134
   vertex 101.74999997058791 -66.00000000000001 -1.09242837865133
  endloop
 endfacet
 facet normal 0.00000000000000 1.00000000000000 0.00000000000000
  outer loop
   vertex 63.00000000000000 -66.00000000000001 -11.09242837865134
   vertex 63.00000000000000 -66.00000000000001 -1.09242837865133
   vertex 101.74999997058791 -66.00000000000001 -1.09242837865133
  endloop
 endfacet
 facet normal -0.00000000000000 1.00000000000000 0.00000000000000
  outer loop
   vertex 101.74999997058791 -66.00000000000001 -1.09242837865133
   vertex 283.00000000000000 -66.00000000000001 -1.09242837865133
   vertex 283.00000000000000 -66.00000000000001 -11.09242837865134
  endloop
 endfacet
 facet normal 0.00000000000000 0.00000000000000 -1.00000000000000
  outer loop
   vertex 63.00000000000001 -286.00000000000000 -11.09242837865134
   vertex 63.00000000000000 -66.00000000000001 -11.09242837865134
   vertex 130.50000000000006 -113.50000000000007 -11.09242837865134
  endloop
 endfacet
 facet normal 0.00000000000000 0.00000000000000 -1.00000000000000
  outer loop
   vertex 283.00000000000000 -66.00000000000001 -11.09242837865134
   vertex 215.50000000000009 -113.50000000000007 -11.09242837865134
   vertex 130.50000000000006 -113.50000000000007 -11.09242837865134
  endloop
 endfacet
 facet normal 0.00000000000000 0.00000000000000 -1.00000000000000
  outer loop
   vertex 130.50000000000006 -113.50000000000007 -11.09242837865134
   vertex 63.00000000000000 -66.00000000000001 -11.09242837865134
   vertex 283.00000000000000 -66.00000000000001 -11.09242837865134
  endloop
 endfacet
 facet normal 0.00000000000000 0.00000000000000 -1.00000000000000
  outer loop
   vertex 283.00000000000000 -286.00000000000000 -11.09242837865134
   vertex 215.50000000000009 -238.50000000000006 -11.09242837865134
   vertex 215.50000000000009 -113.50000000000007 -11.09242837865134
  endloop
 endfacet
 facet normal 0.00000000000000 0.00000000000000 -1.00000000000000
  outer loop
   vertex 215.50000000000009 -113.50000000000007 -11.09242837865134
   vertex 283.00000000000000 -66.00000000000001 -11.09242837865134
   vertex 283.00000000000000 -286.00000000000000 -11.09242837865134
  endloop
 endfacet
 facet normal 0.00000000000000 0.00000000000000 -1.00000000000000
  outer loop
   vertex 283.00000000000000 -286.00000000000000 -11.09242837865134
   vertex 63.00000000000001 -286.00000000000000 -11.09242837865134
   vertex 130.50000000000006 -238.50000000000000 -11.09242837865134
  endloop
 endfacet
 facet normal 0.00000000000000 0.00000000000000 -1.00000000000000
  outer loop
   vertex 130.50000000000006 -238.50000000000000 -11.09242837865134
   vertex 215.50000000000009 -238.50000000000006 -11.09242837865134
   vertex 283.00000000000000 -286.00000000000000 -11.09242837865134
  endloop
 endfacet
 facet normal 0.00000000000000 -0.00000000000000 -1.00000000000000
  outer loop
   vertex 130.50000000000006 -113.50000000000007 -11.09242837865134
   vertex 130.50000000000006 -238.50000000000000 -11.09242837865134
   vertex 63.00000000000001 -286.00000000000000 -11.09242837865134
  endloop
 endfacet
 facet normal 1.00000000000000 0.00000000000000 0.00000000000000
  outer loop
   vertex 130.50000000000006 -238.50000000000000 -1.09242837865134
   vertex 130.50000000000006 -238.50000000000000 -11.09242837865133
   vertex 130.50000000000006 -113.50000000000007 -11.09242837865133
  endloop
 endfacet
 facet normal 1.00000000000000 0.00000000000000 -0.00000000000000
  outer loop
   vertex 130.50000000000006 -113.50000000000007 -11.09242837865133
   vertex 130.50000000000006 -113.50000000000007 -1.09242837865134
   vertex 130.50000000000006 -238.50000000000000 -1.09242837865134
  endloop
 endfacet
 facet normal 0.00000000000000 1.00000000000000 0.00000000000000
  outer loop
   vertex 215.50000000000009 -238.50000000000000 -1.09242837865134
   vertex 215.50000000000009 -238.50000000000000 -11.09242837865133
   vertex 130.50000000000006 -238.50000000000000 -11.09242837865133
  endloop
 endfacet
 facet normal 0.00000000000000 1.00000000000000 0.00000000000000
  outer loop
   vertex 130.50000000000006 -238.50000000000000 -11.09242837865133
   vertex 130.50000000000006 -238.50000000000000 -1.09242837865134
   vertex 215.50000000000009 -238.50000000000000 -1.09242837865134
  endloop
 endfacet
 facet normal -1.00000000000000 0.00000000000000 -0.00000000000000
  outer loop
   vertex 215.50000000000009 -113.50000000000007 -1.09242837865134
   vertex 215.50000000000009 -113.50000000000007 -11.09242837865133
   vertex 215.50000000000009 -238.50000000000006 -11.09242837865133
  endloop
 endfacet
 facet normal -1.00000000000000 0.00000000000000 0.00000000000000
  outer loop
   vertex 215.50000000000009 -238.50000000000006 -11.09242837865133
   vertex 215.50000000000009 -238.50000000000006 -1.09242837865134
   vertex 215.50000000000009 -113.50000000000007 -1.09242837865134
  endloop
 endfacet
 facet normal 0.00000000000000 -1.00000000000000 0.00000000000000
  outer loop
   vertex 130.50000000000006 -113.50000000000007 -1.09242837865134
   vertex 130.50000000000006 -113.50000000000007 -11.09242837865133
   vertex 215.50000000000009 -113.50000000000007 -11.09242837865133
  endloop
 endfacet
 facet normal 0.00000000000000 -1.00000000000000 0.00000000000000
  outer loop
   vertex 215.50000000000009 -113.50000000000007 -11.09242837865133
   vertex 215.50000000000009 -113.50000000000007 -1.09242837865134
   vertex 130.50000000000006 -113.50000000000007 -1.09242837865134
  endloop
 endfacet
 facet normal 0.00000000000000 -0.00000000000000 1.00000000000000
  outer loop
   vertex 273.15654595908029 -257.25000002941118 -1.09242837865133
   vertex 273.15654595908029 -75.99999994117573 -1.09242837865133
   vertex 215.50000000000009 -113.50000000000007 -1.09242837865133
  endloop
 endfacet
 facet normal 0.00000000000000 0.00000000000000 1.00000000000000
  outer loop
   vertex 215.50000000000009 -113.50000000000007 -1.09242837865133
   vertex 215.50000000000009 -238.50000000000006 -1.09242837865133
   vertex 273.15654595908029 -257.25000002941118 -1.09242837865133
  endloop
 endfacet
 facet normal 0.00000000000000 0.00000000000000 1.00000000000000
  outer loop
   vertex 101.74999997058791 -75.84345404091971 -1.09242837865133
   vertex 130.50000000000006 -113.50000000000007 -1.09242837865133
   vertex 215.50000000000009 -113.50000000000007 -1.09242837865133
  endloop
 endfacet
 facet normal 0.00000000000000 -0.00000000000000 1.00000000000000
  outer loop
   vertex 215.50000000000009 -113.50000000000007 -1.09242837865133
   vertex 273.00000005882231 -75.84345404091971 -1.09242837865133
   vertex 101.74999997058791 -75.84345404091971 -1.09242837865133
  endloop
 endfacet
 facet normal 0.00000000000000 0.00000000000000 1.00000000000000
  outer loop
   vertex 101.74999997058791 -257.25000002941118 -1.09242837865133
   vertex 130.50000000000006 -238.50000000000000 -1.09242837865133
   vertex 130.50000000000006 -113.50000000000007 -1.09242837865133
  endloop
 endfacet
 facet normal 0.00000000000000 0.00000000000000 1.00000000000000
  outer loop
   vertex 283.00000000000000 -66.00000000000001 -1.09242837865133
   vertex 273.00000005882231 -73.29846141265823 -1.09242837865133
   vertex 273.00000005882231 -75.84345404091971 -1.09242837865133
  endloop
 endfacet
 facet normal 0.00000000000000 0.00000000000000 1.00000000000000
  outer loop
   vertex 130.50000000000006 -113.50000000000007 -1.09242837865133
   vertex 101.74999997058791 -75.84345404091971 -1.09242837865133
   vertex 101.74999997058791 -257.25000002941118 -1.09242837865133
  endloop
 endfacet
 facet normal 0.00000000000000 0.00000000000000 1.00000000000000
  outer loop
   vertex 101.74999997058791 -257.25000002941118 -1.09242837865133
   vertex 273.15654595908029 -257.25000002941118 -1.09242837865133
   vertex 215.50000000000009 -238.50000000000006 -1.09242837865133
  endloop
 endfacet
 facet normal 0.00000000000000 -0.00000000000000 1.00000000000000
  outer loop
   vertex 283.00000000000000 -257.25000002941118 -1.09242837865133
   vertex 283.00000000000000 -66.00000000000001 -1.09242837865133
   vertex 275.70153858734170 -75.99999994117573 -1.09242837865133
  endloop
 endfacet
 facet normal -0.00000000000000 0.00000000000000 1.00000000000000
  outer loop
   vertex 273.00000005882231 -75.84345404091971 -1.09242837865133
   vertex 273.15654595908029 -75.99999994117573 -1.09242837865133
   vertex 283.00000000000000 -66.00000000000001 -1.09242837865133
  endloop
 endfacet
 facet normal 0.00000000000000 0.00000000000000 1.00000000000000
  outer loop
   vertex 215.50000000000009 -238.50000000000006 -1.09242837865133
   vertex 130.50000000000006 -238.50000000000000 -1.09242837865133
   vertex 101.74999997058791 -257.25000002941118 -1.09242837865133
  endloop
 endfacet
 facet normal 0.00000000000000 0.00000000000000 1.00000000000000
  outer loop
   vertex 273.15654595908029 -75.99999994117573 -1.09242837865133
   vertex 275.70153858734170 -75.99999994117573 -1.09242837865133
   vertex 283.00000000000000 -66.00000000000001 -1.09242837865133
  endloop
 endfacet
 facet normal 0.00000000000000 0.00000000000000 1.00000000000000
  outer loop
   vertex 275.70153858734170 -75.99999994117573 -1.09242837865133
   vertex 275.70153858734170 -257.25000002941118 -1.09242837865133
   vertex 283.00000000000000 -257.25000002941118 -1.09242837865133
  endloop
 endfacet
 facet normal 0.00000000000000 0.00000000000000 1.00000000000000
  outer loop
   vertex 101.74999997058791 -66.00000000000001 -1.09242837865133
   vertex 101.74999997058791 -73.29846141265823 -1.09242837865133
   vertex 273.00000005882231 -73.29846141265823 -1.09242837865133
  endloop
 endfacet
 facet normal 0.00000000000000 -0.00000000000000 1.00000000000000
  outer loop
   vertex 273.00000005882231 -73.29846141265823 -1.09242837865133
   vertex 283.00000000000000 -66.00000000000001 -1.09242837865133
   vertex 101.74999997058791 -66.00000000000001 -1.09242837865133
  endloop
 endfacet
 facet normal 0.00000000000000 0.00000000000000 1.00000000000000
  outer loop
   vertex 283.00000000000000 -286.00000000000000 -1.09242837865133
   vertex 275.70153858734170 -276.00000005882231 -1.09242837865133
   vertex 273.15654595908029 -276.00000005882231 -1.09242837865133
  endloop
 endfacet
 facet normal 0.00000000000000 0.00000000000000 1.00000000000000
  outer loop
   vertex 273.15654595908029 -276.00000005882231 -1.09242837865133
   vertex 273.00000005882231 -276.15654595908029 -1.09242837865133
   vertex 283.00000000000000 -286.00000000000000 -1.09242837865133
  endloop
 endfacet
 facet normal 0.00000000000000 0.00000000000000 1.00000000000000
  outer loop
   vertex 283.00000000000000 -257.25000002941118 -1.09242837865133
   vertex 275.70153858734170 -257.25000002941118 -1.09242837865133
   vertex 275.70153858734170 -276.00000005882231 -1.09242837865133
  endloop
 endfacet
 facet normal 0.00000000000000 0.00000000000000 1.00000000000000
  outer loop
   vertex 101.74999997058791 -286.00000000000000 -1.09242837865133
   vertex 283.00000000000000 -286.00000000000000 -1.09242837865133
   vertex 273.00000005882231 -278.70153858734182 -1.09242837865133
  endloop
 endfacet
 facet normal -0.00000000000000 0.00000000000000 1.00000000000000
  outer loop
   vertex 275.70153858734170 -276.00000005882231 -1.09242837865133
   vertex 283.00000000000000 -286.00000000000000 -1.09242837865133
   vertex 283.00000000000000 -257.25000002941118 -1.09242837865133
  endloop
 endfacet
 facet normal 0.00000000000000 0.00000000000000 1.00000000000000
  outer loop
   vertex 101.74999997058791 -257.25000002941118 -1.09242837865133
   vertex 101.74999997058791 -276.15654595908029 -1.09242837865133
   vertex 273.00000005882231 -276.15654595908029 -1.09242837865133
  endloop
 endfacet
 facet normal 0.00000000000000 0.00000000000000 1.00000000000000
  outer loop
   vertex 273.00000005882231 -276.15654595908029 -1.09242837865133
   vertex 273.00000005882231 -278.70153858734182 -1.09242837865133
   vertex 283.00000000000000 -286.00000000000000 -1.09242837865133
  endloop
 endfacet
 facet normal 0.00000000000000 -0.00000000000000 1.00000000000000
  outer loop
   vertex 273.00000005882231 -276.15654595908029 -1.09242837865133
   vertex 273.15654595908029 -276.00000005882231 -1.09242837865133
   vertex 101.74999997058791 -257.25000002941118 -1.09242837865133
  endloop
 endfacet
 facet normal 0.00000000000000 -0.00000000000000 1.00000000000000
  outer loop
   vertex 273.15654595908029 -276.00000005882231 -1.09242837865133
   vertex 273.15654595908029 -257.25000002941118 -1.09242837865133
   vertex 101.74999997058791 -257.25000002941118 -1.09242837865133
  endloop
 endfacet
 facet normal 0.00000000000000 0.00000000000000 1.00000000000000
  outer loop
   vertex 63.00000000000000 -66.00000000000001 -1.09242837865133
   vertex 72.84345404091970 -75.99999994117573 -1.09242837865133
   vertex 72.99999994117573 -75.84345404091971 -1.09242837865133
  endloop
 endfacet
 facet normal 0.00000000000000 0.00000000000000 1.00000000000000
  outer loop
   vertex 63.00000000000000 -66.00000000000001 -1.09242837865133
   vertex 70.29846141265823 -75.99999994117573 -1.09242837865133
   vertex 72.84345404091970 -75.99999994117573 -1.09242837865133
  endloop
 endfacet
 facet normal 0.00000000000000 0.00000000000000 1.00000000000000
  outer loop
   vertex 63.00000000000000 -257.25000002941118 -1.09242837865133
   vertex 70.29846141265823 -257.25000002941118 -1.09242837865133
   vertex 70.29846141265823 -75.99999994117573 -1.09242837865133
  endloop
 endfacet
 facet normal 0.00000000000000 0.00000000000000 1.00000000000000
  outer loop
   vertex 101.74999997058791 -66.00000000000001 -1.09242837865133
   vertex 63.00000000000000 -66.00000000000001 -1.09242837865133
   vertex 72.99999994117573 -73.29846141265823 -1.09242837865133
  endloop
 endfacet
 facet normal 0.00000000000000 0.00000000000000 1.00000000000000
  outer loop
   vertex 70.29846141265823 -75.99999994117573 -1.09242837865133
   vertex 63.00000000000000 -66.00000000000001 -1.09242837865133
   vertex 63.00000000000000 -257.25000002941118 -1.09242837865133
  endloop
 endfacet
 facet normal 0.00000000000000 0.00000000000000 1.00000000000000
  outer loop
   vertex 101.74999997058791 -257.25000002941118 -1.09242837865133
   vertex 72.99999994117573 -75.84345404091971 -1.09242837865133
   vertex 72.84345404091970 -75.99999994117573 -1.09242837865133
  endloop
 endfacet
 facet normal 0.00000000000000 -0.00000000000000 1.00000000000000
  outer loop
   vertex 72.99999994117573 -75.84345404091971 -1.09242837865133
   vertex 72.99999994117573 -73.29846141265823 -1.09242837865133
   vertex 63.00000000000000 -66.00000000000001 -1.09242837865133
  endloop
 endfacet
 facet normal 0.00000000000000 -0.00000000000000 1.00000000000000
  outer loop
   vertex 101.74999997058791 -257.25000002941118 -1.09242837865133
   vertex 101.74999997058791 -75.84345404091971 -1.09242837865133
   vertex 72.99999994117573 -75.84345404091971 -1.09242837865133
  endloop
 endfacet
 facet normal 0.00000000000000 0.00000000000000 1.00000000000000
  outer loop
   vertex 72.84345404091970 -75.99999994117573 -1.09242837865133
   vertex 72.84345404091970 -257.25000002941118 -1.09242837865133
   vertex 101.74999997058791 -257.25000002941118 -1.09242837865133
  endloop
 endfacet
 facet normal 0.00000000000000 0.00000000000000 1.00000000000000
  outer loop
   vertex 63.00000000000000 -286.00000000000000 -1.09242837865133
   vertex 72.99999994117573 -276.15654595908029 -1.09242837865133
   vertex 72.84345404091970 -276.00000005882231 -1.09242837865133
  endloop
 endfacet
 facet normal 0.00000000000000 0.00000000000000 1.00000000000000
  outer loop
   vertex 63.00000000000000 -286.00000000000000 -1.09242837865133
   vertex 72.99999994117573 -278.70153858734182 -1.09242837865133
   vertex 72.99999994117573 -276.15654595908029 -1.09242837865133
  endloop
 endfacet
 facet normal 0.00000000000000 -0.00000000000000 1.00000000000000
  outer loop
   vertex 101.74999997058791 -286.00000000000000 -1.09242837865133
   vertex 101.74999997058791 -278.70153858734182 -1.09242837865133
   vertex 72.99999994117573 -278.70153858734182 -1.09242837865133
  endloop
 endfacet
 facet normal 0.00000000000000 0.00000000000000 1.00000000000000
  outer loop
   vertex 63.00000000000000 -257.25000002941118 -1.09242837865133
   vertex 63.00000000000000 -286.00000000000000 -1.09242837865133
   vertex 70.29846141265823 -276.00000005882231 -1.09242837865133
  endloop
 endfacet
 facet normal 0.00000000000000 0.00000000000000 1.00000000000000
  outer loop
   vertex 72.99999994117573 -278.70153858734182 -1.09242837865133
   vertex 63.00000000000000 -286.00000000000000 -1.09242837865133
   vertex 101.74999997058791 -286.00000000000000 -1.09242837865133
  endloop
 endfacet
 facet normal 0.00000000000000 0.00000000000000 1.00000000000000
  outer loop
   vertex 101.74999997058791 -257.25000002941118 -1.09242837865133
   vertex 72.84345404091970 -276.00000005882231 -1.09242837865133
   vertex 72.99999994117573 -276.15654595908029 -1.09242837865133
  endloop
 endfacet
 facet normal 0.00000000000000 0.00000000000000 1.00000000000000
  outer loop
   vertex 72.84345404091970 -276.00000005882231 -1.09242837865133
   vertex 70.29846141265823 -276.00000005882231 -1.09242837865133
   vertex 63.00000000000000 -286.00000000000000 -1.09242837865133
  endloop
 endfacet
 facet normal 0.00000000000000 0.00000000000000 1.00000000000000
  outer loop
   vertex 101.74999997058791 -257.25000002941118 -1.09242837865133
   vertex 72.84345404091970 -257.25000002941118 -1.09242837865133
   vertex 72.84345404091970 -276.00000005882231 -1.09242837865133
  endloop
 endfacet
 facet normal 0.00000000000000 0.00000000000000 1.00000000000000
  outer loop
   vertex 72.99999994117573 -276.15654595908029 -1.09242837865133
   vertex 101.74999997058791 -276.15654595908029 -1.09242837865133
   vertex 101.74999997058791 -257.25000002941118 -1.09242837865133
  endloop
 endfacet
 facet normal 0.00000000000000 -0.00000000000000 1.00000000000000
  outer loop
   vertex 70.29846141265823 -276.00000005882231 -1.09242837865133
   vertex 70.29846141265823 -257.25000002941118 -1.09242837865133
   vertex 63.00000000000000 -257.25000002941118 -1.09242837865133
  endloop
 endfacet
 facet normal 0.00000000000000 0.00000000000000 1.00000000000000
  outer loop
   vertex 72.99999994117573 -73.29846141265823 -1.09242837865133
   vertex 101.74999997058791 -73.29846141265823 -1.09242837865133
   vertex 101.74999997058791 -66.00000000000001 -1.09242837865133
  endloop
 endfacet
 facet normal 0.00000000000000 0.00000000000000 1.00000000000000
  outer loop
   vertex 273.00000005882231 -278.70153858734182 -1.09242837865133
   vertex 101.74999997058791 -278.70153858734182 -1.09242837865133
   vertex 101.74999997058791 -286.00000000000000 -1.09242837865133
  endloop
 endfacet
 facet normal 0.00000000000000 0.00000000000000 1.00000000000000
  outer loop
   vertex 273.15654595908029 -75.99999994117573 -1.09242837865133
   vertex 273.00000005882231 -75.84345404091971 -1.09242837865133
   vertex 215.50000000000009 -113.50000000000007 -1.09242837865133
  endloop
 endfacet
 facet normal -0.78585689317540 0.00000000000000 0.61840839535756
  outer loop
   vertex 70.72760446767062 -75.99999994117573 -3.78119357741394
   vertex 70.72760446767062 -276.00000005882231 -3.78119357741394
   vertex 72.84345404091970 -257.25000002941118 -1.09242837865134
  endloop
 endfacet
 facet normal -0.78585689317540 0.00000000000000 0.61840839535756
  outer loop
   vertex 70.72760446767062 -276.00000005882231 -3.78119357741394
   vertex 72.84345404091970 -276.00000005882231 -1.09242837865134
   vertex 72.84345404091970 -257.25000002941118 -1.09242837865134
  endloop
 endfacet
 facet normal -0.78585689317540 0.00000000000000 0.61840839535756
  outer loop
   vertex 72.84345404091970 -257.25000002941118 -1.09242837865134
   vertex 72.84345404091970 -75.99999994117573 -1.09242837865134
   vertex 70.72760446767062 -75.99999994117573 -3.78119357741394
  endloop
 endfacet
 facet normal 0.61840839535755 -0.00000000000000 0.78585689317540
  outer loop
   vertex 70.72760446767062 -276.00000005882231 -3.78119357741393
   vertex 70.72760446767062 -75.99999994117573 -3.78119357741393
   vertex 69.15589068131993 -75.99999994117573 -2.54437678669892
  endloop
 endfacet
 facet normal 0.61840839535755 0.00000000000000 0.78585689317540
  outer loop
   vertex 69.15589068131993 -75.99999994117573 -2.54437678669892
   vertex 69.15589068131993 -276.00000005882231 -2.54437678669892
   vertex 70.72760446767062 -276.00000005882231 -3.78119357741393
  endloop
 endfacet
 facet normal 0.78585689317540 -0.00000000000000 -0.61840839535755
  outer loop
   vertex 69.15589068131993 -75.99999994117573 -2.54437678669892
   vertex 70.29846141265823 -75.99999994117573 -1.09242837865134
   vertex 70.29846141265823 -257.25000002941118 -1.09242837865133
  endloop
 endfacet
 facet normal 0.78585689317540 -0.00000000000000 -0.61840839535755
  outer loop
   vertex 70.29846141265823 -257.25000002941118 -1.09242837865133
   vertex 69.15589068131993 -276.00000005882231 -2.54437678669892
   vertex 69.15589068131993 -75.99999994117573 -2.54437678669892
  endloop
 endfacet
 facet normal 0.78585689317540 0.00000000000000 -0.61840839535755
  outer loop
   vertex 70.29846141265823 -257.25000002941118 -1.09242837865133
   vertex 70.29846141265823 -276.00000005882231 -1.09242837865134
   vertex 69.15589068131993 -276.00000005882231 -2.54437678669892
  endloop
 endfacet
 facet normal 0.00000000000000 1.00000000000000 0.00000000000000
  outer loop
   vertex 70.72760446767062 -276.00000005882231 -3.78119357741394
   vertex 69.15589068131993 -276.00000005882231 -2.54437678669893
   vertex 70.29846141265823 -276.00000005882231 -1.09242837865133
  endloop
 endfacet
 facet normal -0.00000000000000 1.00000000000000 0.00000000000000
  outer loop
   vertex 70.29846141265823 -276.00000005882231 -1.09242837865133
   vertex 72.84345404091970 -276.00000005882231 -1.09242837865133
   vertex 70.72760446767062 -276.00000005882231 -3.78119357741394
  endloop
 endfacet
 facet normal 0.00000000000000 -1.00000000000000 0.00000000000000
  outer loop
   vertex 70.72760446767062 -75.99999994117573 -3.78119357741394
   vertex 72.84345404091970 -75.99999994117573 -1.09242837865133
   vertex 70.29846141265823 -75.99999994117573 -1.09242837865133
  endloop
 endfacet
 facet normal 0.00000000000000 -1.00000000000000 -0.00000000000000
  outer loop
   vertex 70.29846141265823 -75.99999994117573 -1.09242837865133
   vertex 69.15589068131993 -75.99999994117573 -2.54437678669893
   vertex 70.72760446767062 -75.99999994117573 -3.78119357741394
  endloop
 endfacet
 facet normal 0.00000000000000 -0.78585689317540 0.61840839535756
  outer loop
   vertex 273.00000005882231 -278.27239553232937 -3.78119357741395
   vertex 273.00000005882231 -276.15654595908029 -1.09242837865134
   vertex 101.74999997058791 -276.15654595908029 -1.09242837865134
  endloop
 endfacet
 facet normal -0.00000000000000 -0.78585689317540 0.61840839535756
  outer loop
   vertex 101.74999997058791 -276.15654595908029 -1.09242837865134
   vertex 72.99999994117574 -278.27239553232937 -3.78119357741395
   vertex 273.00000005882231 -278.27239553232937 -3.78119357741395
  endloop
 endfacet
 facet normal 0.00000000000000 -0.78585689317540 0.61840839535756
  outer loop
   vertex 101.74999997058791 -276.15654595908029 -1.09242837865134
   vertex 72.99999994117574 -276.15654595908029 -1.09242837865134
   vertex 72.99999994117574 -278.27239553232937 -3.78119357741395
  endloop
 endfacet
 facet normal 0.00000000000000 0.61840839535755 0.78585689317540
  outer loop
   vertex 273.00000005882231 -278.27239553232937 -3.78119357741393
   vertex 72.99999994117574 -278.27239553232937 -3.78119357741393
   vertex 72.99999994117574 -279.84410931868007 -2.54437678669892
  endloop
 endfacet
 facet normal -0.00000000000000 0.61840839535755 0.78585689317540
  outer loop
   vertex 72.99999994117574 -279.84410931868007 -2.54437678669892
   vertex 273.00000005882231 -279.84410931868007 -2.54437678669892
   vertex 273.00000005882231 -278.27239553232937 -3.78119357741393
  endloop
 endfacet
 facet normal 0.00000000000000 0.78585689317541 -0.61840839535754
  outer loop
   vertex 273.00000005882231 -279.84410931868007 -2.54437678669892
   vertex 72.99999994117574 -279.84410931868007 -2.54437678669892
   vertex 101.74999997058791 -278.70153858734182 -1.09242837865134
  endloop
 endfacet
 facet normal -0.00000000000000 0.78585689317541 -0.61840839535754
  outer loop
   vertex 72.99999994117574 -279.84410931868007 -2.54437678669892
   vertex 72.99999994117574 -278.70153858734182 -1.09242837865134
   vertex 101.74999997058791 -278.70153858734182 -1.09242837865134
  endloop
 endfacet
 facet normal 0.00000000000000 0.78585689317541 -0.61840839535754
  outer loop
   vertex 101.74999997058791 -278.70153858734182 -1.09242837865134
   vertex 273.00000005882231 -278.70153858734182 -1.09242837865134
   vertex 273.00000005882231 -279.84410931868007 -2.54437678669892
  endloop
 endfacet
 facet normal -1.00000000000000 0.00000000000000 0.00000000000000
  outer loop
   vertex 273.00000005882231 -278.27239553232937 -3.78119357741393
   vertex 273.00000005882231 -279.84410931868007 -2.54437678669893
   vertex 273.00000005882231 -278.70153858734176 -1.09242837865133
  endloop
 endfacet
 facet normal -1.00000000000000 0.00000000000000 0.00000000000000
  outer loop
   vertex 273.00000005882231 -278.70153858734176 -1.09242837865133
   vertex 273.00000005882231 -276.15654595908029 -1.09242837865134
   vertex 273.00000005882231 -278.27239553232937 -3.78119357741393
  endloop
 endfacet
 facet normal 1.00000000000000 0.00000000000000 -0.00000000000000
  outer loop
   vertex 72.99999994117573 -278.27239553232937 -3.78119357741393
   vertex 72.99999994117573 -276.15654595908029 -1.09242837865134
   vertex 72.99999994117573 -278.70153858734176 -1.09242837865133
  endloop
 endfacet
 facet normal 1.00000000000000 0.00000000000000 0.00000000000000
  outer loop
   vertex 72.99999994117573 -278.70153858734176 -1.09242837865133
   vertex 72.99999994117573 -279.84410931868007 -2.54437678669893
   vertex 72.99999994117573 -278.27239553232937 -3.78119357741393
  endloop
 endfacet
 facet normal 0.00000000000000 0.78585689317540 0.61840839535755
  outer loop
   vertex 273.00000005882231 -73.72760446767063 -3.78119357741392
   vertex 72.99999994117574 -73.72760446767063 -3.78119357741392
   vertex 101.74999997058791 -75.84345404091970 -1.09242837865132
  endloop
 endfacet
 facet normal -0.00000000000000 0.78585689317540 0.61840839535756
  outer loop
   vertex 72.99999994117574 -73.72760446767063 -3.78119357741392
   vertex 72.99999994117574 -75.84345404091971 -1.09242837865132
   vertex 101.74999997058791 -75.84345404091970 -1.09242837865132
  endloop
 endfacet
 facet normal 0.00000000000000 0.78585689317540 0.61840839535756
  outer loop
   vertex 101.74999997058791 -75.84345404091970 -1.09242837865132
   vertex 273.00000005882231 -75.84345404091971 -1.09242837865132
   vertex 273.00000005882231 -73.72760446767063 -3.78119357741392
  endloop
 endfacet
 facet normal 0.00000000000000 -0.61840839535755 0.78585689317540
  outer loop
   vertex 273.00000005882231 -72.15589068131995 -2.54437678669891
   vertex 72.99999994117574 -72.15589068131995 -2.54437678669891
   vertex 72.99999994117574 -73.72760446767063 -3.78119357741392
  endloop
 endfacet
 facet normal 0.00000000000000 -0.61840839535755 0.78585689317540
  outer loop
   vertex 72.99999994117574 -73.72760446767063 -3.78119357741392
   vertex 273.00000005882231 -73.72760446767063 -3.78119357741392
   vertex 273.00000005882231 -72.15589068131995 -2.54437678669891
  endloop
 endfacet
 facet normal -0.00000000000000 -0.78585689317540 -0.61840839535756
  outer loop
   vertex 273.00000005882231 -72.15589068131995 -2.54437678669892
   vertex 273.00000005882231 -73.29846141265824 -1.09242837865134
   vertex 101.74999997058791 -73.29846141265824 -1.09242837865134
  endloop
 endfacet
 facet normal -0.00000000000000 -0.78585689317540 -0.61840839535756
  outer loop
   vertex 101.74999997058791 -73.29846141265824 -1.09242837865134
   vertex 72.99999994117574 -72.15589068131995 -2.54437678669892
   vertex 273.00000005882231 -72.15589068131995 -2.54437678669892
  endloop
 endfacet
 facet normal 0.00000000000000 -0.78585689317540 -0.61840839535756
  outer loop
   vertex 101.74999997058791 -73.29846141265824 -1.09242837865134
   vertex 72.99999994117574 -73.29846141265824 -1.09242837865134
   vertex 72.99999994117574 -72.15589068131995 -2.54437678669892
  endloop
 endfacet
 facet normal -1.00000000000000 0.00000000000000 0.00000000000000
  outer loop
   vertex 273.00000005882231 -73.72760446767064 -3.78119357741393
   vertex 273.00000005882231 -75.84345404091971 -1.09242837865132
   vertex 273.00000005882231 -73.29846141265823 -1.09242837865133
  endloop
 endfacet
 facet normal -1.00000000000000 0.00000000000000 -0.00000000000000
  outer loop
   vertex 273.00000005882231 -73.29846141265823 -1.09242837865133
   vertex 273.00000005882231 -72.15589068131995 -2.54437678669893
   vertex 273.00000005882231 -73.72760446767064 -3.78119357741393
  endloop
 endfacet
 facet normal 1.00000000000000 0.00000000000000 0.00000000000000
  outer loop
   vertex 72.99999994117573 -73.72760446767064 -3.78119357741393
   vertex 72.99999994117573 -72.15589068131995 -2.54437678669893
   vertex 72.99999994117573 -73.29846141265823 -1.09242837865133
  endloop
 endfacet
 facet normal 1.00000000000000 0.00000000000000 0.00000000000000
  outer loop
   vertex 72.99999994117573 -73.29846141265823 -1.09242837865133
   vertex 72.99999994117573 -75.84345404091971 -1.09242837865132
   vertex 72.99999994117573 -73.72760446767064 -3.78119357741393
  endloop
 endfacet
 facet normal 0.78585689317540 0.00000000000000 0.61840839535756
  outer loop
   vertex 275.27239553232937 -75.99999994117573 -3.78119357741390
   vertex 273.15654595908029 -75.99999994117573 -1.09242837865134
   vertex 273.15654595908029 -257.25000002941118 -1.09242837865134
  endloop
 endfacet
 facet normal 0.78585689317540 0.00000000000000 0.61840839535756
  outer loop
   vertex 273.15654595908029 -257.25000002941118 -1.09242837865134
   vertex 275.27239553232937 -276.00000005882231 -3.78119357741390
   vertex 275.27239553232937 -75.99999994117573 -3.78119357741390
  endloop
 endfacet
 facet normal 0.78585689317540 -0.00000000000000 0.61840839535756
  outer loop
   vertex 273.15654595908029 -257.25000002941118 -1.09242837865134
   vertex 273.15654595908029 -276.00000005882231 -1.09242837865134
   vertex 275.27239553232937 -276.00000005882231 -3.78119357741390
  endloop
 endfacet
 facet normal -0.61840839535756 0.00000000000000 0.78585689317540
  outer loop
   vertex 276.84410931868001 -276.00000005882231 -2.54437678669890
   vertex 276.84410931868001 -75.99999994117573 -2.54437678669890
   vertex 275.27239553232937 -75.99999994117573 -3.78119357741391
  endloop
 endfacet
 facet normal -0.61840839535756 0.00000000000000 0.78585689317540
  outer loop
   vertex 275.27239553232937 -75.99999994117573 -3.78119357741391
   vertex 275.27239553232937 -276.00000005882231 -3.78119357741391
   vertex 276.84410931868001 -276.00000005882231 -2.54437678669890
  endloop
 endfacet
 facet normal -0.78585689317539 -0.00000000000000 -0.61840839535757
  outer loop
   vertex 276.84410931868007 -75.99999994117573 -2.54437678669895
   vertex 276.84410931868007 -276.00000005882231 -2.54437678669895
   vertex 275.70153858734170 -257.25000002941118 -1.09242837865134
  endloop
 endfacet
 facet normal -0.78585689317539 -0.00000000000000 -0.61840839535757
  outer loop
   vertex 276.84410931868007 -276.00000005882231 -2.54437678669895
   vertex 275.70153858734170 -276.00000005882231 -1.09242837865133
   vertex 275.70153858734170 -257.25000002941118 -1.09242837865134
  endloop
 endfacet
 facet normal -0.78585689317539 0.00000000000000 -0.61840839535757
  outer loop
   vertex 275.70153858734170 -257.25000002941118 -1.09242837865134
   vertex 275.70153858734170 -75.99999994117573 -1.09242837865133
   vertex 276.84410931868007 -75.99999994117573 -2.54437678669895
  endloop
 endfacet
 facet normal 0.00000000000000 1.00000000000000 -0.00000000000000
  outer loop
   vertex 275.27239553232937 -276.00000005882231 -3.78119357741390
   vertex 273.15654595908029 -276.00000005882231 -1.09242837865132
   vertex 275.70153858734170 -276.00000005882231 -1.09242837865133
  endloop
 endfacet
 facet normal 0.00000000000000 1.00000000000000 0.00000000000000
  outer loop
   vertex 275.70153858734170 -276.00000005882231 -1.09242837865133
   vertex 276.84410931868007 -276.00000005882231 -2.54437678669896
   vertex 275.27239553232937 -276.00000005882231 -3.78119357741390
  endloop
 endfacet
 facet normal 0.00000000000000 -1.00000000000000 0.00000000000000
  outer loop
   vertex 275.27239553232937 -75.99999994117573 -3.78119357741390
   vertex 276.84410931868007 -75.99999994117573 -2.54437678669896
   vertex 275.70153858734170 -75.99999994117573 -1.09242837865133
  endloop
 endfacet
 facet normal -0.00000000000000 -1.00000000000000 0.00000000000000
  outer loop
   vertex 275.70153858734170 -75.99999994117573 -1.09242837865133
   vertex 273.15654595908029 -75.99999994117573 -1.09242837865132
   vertex 275.27239553232937 -75.99999994117573 -3.78119357741390
  endloop
 endfacet
endsolid STL file created by Vectorworks 2022 SP1 (Build 619242) (64-Bit)
