solid STL file created by Vectorworks 2022 SP1 (Build 619242) (64-Bit)
 facet normal -1.00000000000000 0.00000000000000 -0.00000000000000
  outer loop
   vertex 181.10208255199575 975.20833311395097 -10128.95982726713191
   vertex 181.10208255199575 975.20833311395097 -10138.95982726713191
   vertex 181.10208255199575 765.20833311395086 -10138.95982726713191
  endloop
 endfacet
 facet normal -1.00000000000000 0.00000000000000 0.00000000000000
  outer loop
   vertex 181.10208255199575 765.20833311395086 -10138.95982726713191
   vertex 181.10208255199575 765.20833311395086 -10128.95982726713191
   vertex 181.10208255199575 975.20833311395097 -10128.95982726713191
  endloop
 endfacet
 facet normal 0.00000000000000 -1.00000000000000 0.00000000000000
  outer loop
   vertex 181.10208255199575 765.20833311395086 -10128.95982726713191
   vertex 181.10208255199575 765.20833311395086 -10138.95982726713191
   vertex 391.10208255199575 765.20833311395086 -10138.95982726713191
  endloop
 endfacet
 facet normal 0.00000000000000 -1.00000000000000 0.00000000000000
  outer loop
   vertex 391.10208255199575 765.20833311395086 -10138.95982726713191
   vertex 391.10208255199575 765.20833311395086 -10128.95982726713191
   vertex 181.10208255199575 765.20833311395086 -10128.95982726713191
  endloop
 endfacet
 facet normal 1.00000000000000 0.00000000000000 0.00000000000000
  outer loop
   vertex 391.10208255199575 765.20833311395086 -10128.95982726713191
   vertex 391.10208255199575 765.20833311395086 -10138.95982726713191
   vertex 391.10208255199575 975.20833311395097 -10138.95982726713191
  endloop
 endfacet
 facet normal 1.00000000000000 0.00000000000000 -0.00000000000000
  outer loop
   vertex 391.10208255199575 975.20833311395097 -10138.95982726713191
   vertex 391.10208255199575 975.20833311395097 -10128.95982726713191
   vertex 391.10208255199575 765.20833311395086 -10128.95982726713191
  endloop
 endfacet
 facet normal 0.00000000000000 1.00000000000000 0.00000000000000
  outer loop
   vertex 391.10208255199581 975.20833311395097 -10128.95982726713191
   vertex 391.10208255199581 975.20833311395097 -10138.95982726713191
   vertex 181.10208255199575 975.20833311395097 -10138.95982726713191
  endloop
 endfacet
 facet normal 0.00000000000000 1.00000000000000 0.00000000000000
  outer loop
   vertex 181.10208255199575 975.20833311395097 -10138.95982726713191
   vertex 181.10208255199575 975.20833311395097 -10128.95982726713191
   vertex 391.10208255199581 975.20833311395097 -10128.95982726713191
  endloop
 endfacet
 facet normal 0.00000000000000 0.00000000000000 1.00000000000000
  outer loop
   vertex 181.10208255199575 975.20833311395097 -10128.95982726713191
   vertex 181.10208255199575 765.20833311395086 -10128.95982726713191
   vertex 391.10208255199575 765.20833311395086 -10128.95982726713191
  endloop
 endfacet
 facet normal 0.00000000000000 -0.00000000000000 1.00000000000000
  outer loop
   vertex 391.10208255199575 765.20833311395086 -10128.95982726713191
   vertex 391.10208255199581 975.20833311395097 -10128.95982726713191
   vertex 181.10208255199575 975.20833311395097 -10128.95982726713191
  endloop
 endfacet
 facet normal 0.00000000000000 0.00000000000000 -1.00000000000000
  outer loop
   vertex 181.10208255199575 975.20833311395097 -10138.95982726713191
   vertex 391.10208255199581 975.20833311395097 -10138.95982726713191
   vertex 391.10208255199575 765.20833311395086 -10138.95982726713191
  endloop
 endfacet
 facet normal 0.00000000000000 0.00000000000000 -1.00000000000000
  outer loop
   vertex 391.10208255199575 765.20833311395086 -10138.95982726713191
   vertex 181.10208255199575 765.20833311395086 -10138.95982726713191
   vertex 181.10208255199575 975.20833311395097 -10138.95982726713191
  endloop
 endfacet
endsolid STL file created by Vectorworks 2022 SP1 (Build 619242) (64-Bit)
